<svg id="etgWejpqAho1" xmlns="http://www.w3.org/2000/svg" xmlns:xlink="http://www.w3.org/1999/xlink" viewBox="0 0 427 407" shape-rendering="geometricPrecision" text-rendering="geometricPrecision"><style><![CDATA[#etgWejpqAho2_to {animation: etgWejpqAho2_to__to 3000ms linear infinite alternate backwards}@keyframes etgWejpqAho2_to__to { 0% {transform: translate(230.118044px,221px)} 100% {transform: translate(230.118044px,266.984822px)}} #etgWejpqAho5_to {animation: etgWejpqAho5_to__to 3000ms linear infinite alternate backwards}@keyframes etgWejpqAho5_to__to { 0% {transform: translate(282px,86px)} 100% {transform: translate(282px,147px)}} #etgWejpqAho10_to {animation: etgWejpqAho10_to__to 3000ms linear infinite alternate backwards}@keyframes etgWejpqAho10_to__to { 0% {transform: translate(94.332206px,86px)} 100% {transform: translate(95.704887px,54.685844px)}}]]></style><g id="etgWejpqAho2_to" transform="translate(230.118044,221)"><g id="etgWejpqAho2" transform="translate(-226,-172)"><path id="etgWejpqAho3" d="M265.429,126L186.571,126C182.942,126,180,128.942,180,132.571L180,211.429C180,215.058,182.942,218,186.571,218L265.429,218C269.058,218,272,215.058,272,211.429L272,132.571C272,128.942,269.058,126,265.429,126Z" fill="rgb(53,49,53)" stroke="none" stroke-width="1"/><path id="etgWejpqAho4" d="M242.004,197.88L234.941,201.955C237.48,206.959,242.685,210.787,250.739,210.787C258.979,210.787,265.113,206.526,265.113,198.744C265.113,191.52,260.963,188.309,253.589,185.159L251.421,184.232C247.704,182.627,246.093,181.577,246.093,178.983C246.093,176.883,247.704,175.277,250.245,175.277C252.723,175.277,254.332,176.328,255.82,178.983L262.575,174.659C259.723,169.657,255.759,167.743,250.245,167.743C242.5,167.743,237.543,172.683,237.543,179.168C237.543,186.207,241.694,189.543,247.953,192.198L250.121,193.125C254.086,194.854,256.44,195.903,256.44,198.868C256.44,201.339,254.148,203.129,250.553,203.129C246.279,203.129,243.864,200.906,242.004,197.88ZM211.333,198.621L204.27,202.882C206.313,207.204,210.342,210.786,217.281,210.786C224.963,210.786,230.229,206.71,230.229,197.756L230.229,168.237L221.555,168.237L221.555,197.634C221.555,201.955,219.758,203.067,216.909,203.067C213.935,203.067,212.695,201.03,211.333,198.621Z" clip-rule="evenodd" fill="rgb(24,25,28)" fill-rule="evenodd" stroke="none" stroke-width="1"/></g></g><g id="etgWejpqAho5_to" transform="translate(282,86)"><g id="etgWejpqAho5" transform="translate(-282,-86)"><path id="etgWejpqAho6" d="M306,58L258,58C255.791,58,254,59.7909,254,62L254,110C254,112.209,255.791,114,258,114L306,114C308.209,114,310,112.209,310,110L310,62C310,59.7909,308.209,58,306,58Z" fill="rgb(53,49,53)" stroke="none" stroke-width="1"/><path id="etgWejpqAho7" d="M267.283,86.4224L267.283,88.6784L274.395,88.6784L274.395,109.157L279.443,109.157L279.443,88.6776L286.555,88.6776L286.555,86.464C286.555,85.2184,286.555,84.208,286.501,84.1808C286.501,84.1392,282.165,84.1248,276.898,84.1248L267.324,84.1672L267.324,86.436L267.283,86.4224ZM299.249,84.1112C300.644,84.444,301.711,85.08,302.668,86.0904C303.174,86.644,303.926,87.6128,303.982,87.8616C303.982,87.9448,301.615,89.5632,300.179,90.4632C300.124,90.504,299.906,90.2688,299.686,89.9096C298.975,88.8856,298.25,88.4424,297.115,88.3592C295.474,88.2488,294.379,89.1208,294.379,90.5736C294.379,91.016,294.462,91.2656,294.626,91.6256C294.995,92.3856,295.678,92.8432,297.799,93.784C301.711,95.4856,303.407,96.6064,304.433,98.212C305.595,100.01,305.855,102.834,305.075,104.95C304.2,107.262,302.066,108.825,299.016,109.337C298.058,109.503,295.87,109.475,294.844,109.295C292.656,108.88,290.563,107.774,289.278,106.348C288.771,105.794,287.8,104.314,287.854,104.217L288.374,103.885L290.426,102.681L291.972,101.768L292.327,102.252C292.779,102.972,293.791,103.94,294.379,104.273C296.158,105.199,298.538,105.075,299.714,103.996C300.22,103.526,300.438,103.027,300.438,102.335C300.438,101.698,300.342,101.408,300.028,100.924C299.59,100.315,298.716,99.8168,296.254,98.7096C293.422,97.492,292.218,96.7176,291.097,95.5272C290.454,94.8072,289.865,93.6872,289.592,92.7592C289.386,91.9576,289.318,89.992,289.51,89.204C290.098,86.436,292.163,84.4992,295.118,83.9456C296.075,83.752,298.332,83.8352,299.276,84.084L299.249,84.112L299.249,84.1112Z" fill="rgb(24,25,28)" stroke="none" stroke-width="1"/></g></g><rect id="etgWejpqAho8" width="106" height="92" rx="0" ry="0" transform="matrix(1 0 0 1 0 202)" fill="none" stroke="none" stroke-width="1"/><rect id="etgWejpqAho9" width="117" height="232" rx="0" ry="0" transform="matrix(1 0 0 1 310 175)" fill="none" stroke="none" stroke-width="1"/><g id="etgWejpqAho10_to" transform="translate(94.332206,86)"><g id="etgWejpqAho10" transform="translate(-97.077568,-86.000003)"><path id="etgWejpqAho11" d="M116.331,30.2958L111.266,39.0455L93.9444,9.11425L40.7704,100.986L76.7727,100.986C76.7727,105.818,80.6994,109.736,85.5431,109.736L40.7704,109.736C37.6373,109.736,34.7425,108.067,33.1763,105.36C31.61,102.653,31.6102,99.318,33.1767,96.6111L86.3507,4.73941C87.9174,2.03211,90.8128,0.364319,93.9462,0.364319C97.0797,0.364319,99.9751,2.03211,101.542,4.73941L116.331,30.2958Z" transform="matrix(1 0 0 1 -8.779907 30.949841)" fill="rgb(0,197,142)" stroke="none" stroke-width="1"/><path id="etgWejpqAho12" d="M154.716,96.6111L121.396,39.0455L116.331,30.2958L111.266,39.0455L77.9494,96.6111C76.3829,99.318,76.3827,102.653,77.949,105.36C79.5153,108.067,82.4101,109.736,85.5431,109.736L147.111,109.736C150.245,109.736,153.141,108.069,154.708,105.362C156.275,102.654,156.275,99.3186,154.708,96.6111L154.716,96.6111ZM85.5431,100.986L116.331,47.7952L147.111,100.986L85.5431,100.986L85.5431,100.986Z" transform="matrix(1 0 0 1 -8.777726 30.949841)" fill="rgb(47,73,94)" stroke="none" stroke-width="1"/><path id="etgWejpqAho13" d="M178.538,105.361C176.972,108.067,174.077,109.736,170.945,109.736L147.111,109.736C151.955,109.736,155.881,105.818,155.881,100.986L170.926,100.986L128.237,27.2225L121.396,39.0455L116.331,30.2958L120.643,22.8476C122.209,20.1403,125.105,18.4725,128.238,18.4725C131.372,18.4725,134.267,20.1403,135.834,22.8476L178.538,96.6111C180.105,99.3183,180.105,102.654,178.538,105.361Z" transform="matrix(1 0 0 1 -8.779907 30.949841)" fill="rgb(16,135,117)" stroke="none" stroke-width="1"/></g></g></svg>