<svg id="eIUlmfJyi6M1" xmlns="http://www.w3.org/2000/svg" xmlns:xlink="http://www.w3.org/1999/xlink" viewBox="0 0 375 351" shape-rendering="geometricPrecision" text-rendering="geometricPrecision"><style><![CDATA[#eIUlmfJyi6M109_to {animation: eIUlmfJyi6M109_to__to 3000ms linear infinite alternate forwards}@keyframes eIUlmfJyi6M109_to__to { 0% {transform: translate(179.610001px,117.445079px)} 3.333333% {transform: translate(179.610001px,117.445079px)} 100% {transform: translate(201.8528px,104.132003px)}} #eIUlmfJyi6M135_to {animation: eIUlmfJyi6M135_to__to 3000ms linear infinite alternate forwards}@keyframes eIUlmfJyi6M135_to__to { 0% {transform: translate(243.112007px,81.508854px)} 100% {transform: translate(243.449402px,64.178253px)}} #eIUlmfJyi6M155_to {animation: eIUlmfJyi6M155_to__to 3000ms linear infinite alternate forwards}@keyframes eIUlmfJyi6M155_to__to { 0% {transform: translate(111.471497px,155.76226px)} 100% {transform: translate(144.333176px,136.72696px)}}]]></style><path id="eIUlmfJyi6M2" d="M67.2917,198.883C66.3692,195.674,66.4193,192.263,67.4358,189.082C68.4523,185.901,70.3895,183.093,73.0023,181.013C75.6151,178.933,78.7863,177.674,82.1148,177.395C85.4432,177.117,88.7794,177.832,91.7016,179.449C94.6237,181.067,97.0005,183.514,98.5313,186.482C100.062,189.45,100.678,192.805,100.302,196.123C99.9253,199.441,98.5731,202.573,96.4162,205.123C94.2593,207.673,91.3946,209.526,88.1844,210.448C83.88,211.684,79.2607,211.16,75.3426,208.991C71.4246,206.823,68.5286,203.187,67.2917,198.883Z" fill="none" stroke="rgb(90,237,125)" stroke-width="2" stroke-linecap="round" stroke-miterlimit="10"/><path id="eIUlmfJyi6M3" d="M83.5214,230.158C103.37,230.158,119.46,214.071,119.46,194.227C119.46,174.383,103.37,158.296,83.5214,158.296C63.6729,158.296,47.5825,174.383,47.5825,194.227C47.5825,214.071,63.6729,230.158,83.5214,230.158Z" fill="none" stroke="rgb(90,237,125)" stroke-width="2" stroke-linecap="round" stroke-miterlimit="10" stroke-dasharray="10.59,10.59"/><path id="eIUlmfJyi6M4" d="M266.106,73.9755L261.657,89.5062L277.191,93.9537L281.64,78.423L266.106,73.9755Z" fill="none" stroke="rgb(255,255,255)" stroke-width="2" stroke-miterlimit="10"/><path id="eIUlmfJyi6M5" d="M81.6561,164.297L77.3501,172.07L85.1248,176.375L89.4308,168.602L81.6561,164.297Z" fill="rgb(23,73,255)" stroke="rgb(255,255,255)" stroke-width="1"/><path id="eIUlmfJyi6M6" d="M1.22736,172.408C0.374221,169.44,0.420524,166.286,1.36042,163.344C2.30031,160.403,4.09157,157.806,6.50768,155.882C8.92378,153.958,11.8562,152.794,14.9341,152.537C18.012,152.279,21.0971,152.94,23.7994,154.436C26.5016,155.931,28.6995,158.195,30.1151,160.939C31.5308,163.684,32.1006,166.786,31.7525,169.855C31.4044,172.923,30.1541,175.819,28.1596,178.177C26.1651,180.535,23.5161,182.248,20.5475,183.101C16.5672,184.242,12.2963,183.757,8.67357,181.752C5.05081,179.747,2.37253,176.386,1.22736,172.408L1.22736,172.408Z" fill="none" stroke="rgb(90,237,125)" stroke-width="2.24" stroke-miterlimit="10"/><path id="eIUlmfJyi6M7" d="M47.6702,116.081C45.3057,107.849,45.4359,99.1012,48.0444,90.9431C50.6529,82.785,55.6224,75.5834,62.3247,70.249C69.0269,64.9147,77.1608,61.6871,85.6978,60.9745C94.2347,60.2618,102.791,62.0961,110.286,66.2454C117.78,70.3947,123.875,76.6726,127.801,84.2852C131.726,91.8979,133.306,100.503,132.339,109.014C131.373,117.524,127.904,125.556,122.372,132.095C116.84,138.635,109.492,143.387,101.258,145.751C95.7909,147.325,90.0671,147.805,84.414,147.165C78.7609,146.526,73.2894,144.778,68.3124,142.022C63.3354,139.267,58.9505,135.557,55.4086,131.106C51.8666,126.655,49.237,121.549,47.6702,116.081L47.6702,116.081Z" fill="none" stroke="rgb(90,237,125)" stroke-width="1.5" stroke-miterlimit="10" stroke-dasharray="7.7,7.7"/><path id="eIUlmfJyi6M8" d="M223.25,0.547791C219.661,7.02841,213.442,3.58267,209.853,10.0633C206.264,16.5439,212.483,19.9897,208.894,26.4977C205.305,33.0057,199.086,29.5326,195.497,36.0132C191.908,42.4938,198.127,45.9341,194.538,52.4147C190.949,58.8953,184.73,55.455,181.141,61.9357C177.552,68.4163,183.771,71.8566,180.182,78.37C176.593,84.8835,170.369,81.4049,166.785,87.8855C163.202,94.3662,169.415,97.8119,165.826,104.293C162.238,110.773,156.013,107.327,152.424,113.808C148.835,120.289,155.054,123.734,151.465,130.242C147.876,136.75,141.652,133.206,138.079,139.692" fill="none" stroke="rgb(255,255,255)" stroke-width="2" stroke-linecap="round" stroke-miterlimit="10"/><path id="eIUlmfJyi6M9" d="M45.7524,144.349L38.6293,140.404" fill="none" stroke="rgb(90,237,125)" stroke-width="1.37" stroke-linecap="round" stroke-miterlimit="10"/><path id="eIUlmfJyi6M10" d="M44.1689,138.816L40.2238,145.937" fill="none" stroke="rgb(90,237,125)" stroke-width="1.37" stroke-linecap="round" stroke-miterlimit="10"/><path id="eIUlmfJyi6M11" d="M281.835,37.9908L274.712,34.0465" fill="none" stroke="rgb(255,255,255)" stroke-width="1.37" stroke-linecap="round" stroke-miterlimit="10"/><path id="eIUlmfJyi6M12" d="M280.246,32.4579L276.301,39.5795" fill="none" stroke="rgb(255,255,255)" stroke-width="1.37" stroke-linecap="round" stroke-miterlimit="10"/><path id="eIUlmfJyi6M13" d="M96.7595,274.69L89.6364,270.746" fill="none" stroke="rgb(255,255,255)" stroke-width="2" stroke-linecap="round" stroke-miterlimit="10"/><path id="eIUlmfJyi6M14" d="M95.1705,269.157L91.2254,276.278" fill="none" stroke="rgb(255,255,255)" stroke-width="2" stroke-linecap="round" stroke-miterlimit="10"/><path id="eIUlmfJyi6M15" d="M161.229,268.746L161.229,347.171C161.245,347.527,161.345,347.875,161.521,348.186C161.697,348.496,161.945,348.76,162.243,348.957L164.407,350.206C164.723,350.365,165.072,350.448,165.426,350.448C165.78,350.448,166.13,350.365,166.446,350.206L168.604,348.957C168.901,348.763,169.148,348.503,169.325,348.197C169.502,347.89,169.604,347.546,169.624,347.193L169.624,268.746C169.624,268.099,169.169,267.837,168.604,268.16L166.44,269.409C166.125,269.568,165.777,269.651,165.424,269.651C165.071,269.651,164.722,269.568,164.407,269.409L162.243,268.16C161.684,267.837,161.229,268.094,161.229,268.746Z" fill="rgb(23,24,25)" stroke="none" stroke-width="1"/><path id="eIUlmfJyi6M16" d="M166.44,350.184L168.604,348.935C168.901,348.742,169.148,348.481,169.325,348.175C169.502,347.868,169.604,347.524,169.624,347.171L169.624,268.746C169.624,268.1,169.163,267.837,168.604,268.16L166.44,269.409C166.145,269.602,165.899,269.862,165.723,270.167C165.547,270.473,165.446,270.815,165.426,271.167L165.426,349.598C165.426,350.244,165.881,350.507,166.44,350.184Z" fill="rgb(42,45,48)" stroke="none" stroke-width="1"/><path id="eIUlmfJyi6M17" d="M69.0012,215.482L69.0012,293.907C69.0205,294.26,69.1228,294.604,69.2998,294.911C69.4769,295.217,69.7238,295.478,70.0204,295.671L72.1792,296.914C72.4945,297.076,72.8439,297.161,73.1984,297.161C73.5529,297.161,73.9022,297.076,74.2175,296.914L76.3764,295.671C76.673,295.478,76.9198,295.217,77.0969,294.911C77.274,294.604,77.3763,294.26,77.3955,293.907L77.3955,215.482C77.3955,214.83,76.9408,214.567,76.3764,214.89L74.2175,216.139C73.9022,216.301,73.5529,216.386,73.1984,216.386C72.8439,216.386,72.4945,216.301,72.1792,216.139L70.0204,214.89C69.456,214.567,69.0012,214.83,69.0012,215.482Z" fill="rgb(23,24,25)" stroke="none" stroke-width="1"/><path id="eIUlmfJyi6M18" d="M74.2175,296.914L76.3764,295.665C76.6729,295.473,76.9197,295.214,77.0969,294.908C77.274,294.603,77.3763,294.26,77.3955,293.907L77.3955,215.482C77.3955,214.83,76.9408,214.567,76.3764,214.89L74.2175,216.139C73.9209,216.333,73.6741,216.593,73.497,216.9C73.3199,217.206,73.2176,217.55,73.1984,217.903L73.1984,296.328C73.1984,296.975,73.6532,297.238,74.2175,296.914Z" fill="rgb(42,45,48)" stroke="none" stroke-width="1"/><path id="eIUlmfJyi6M19" d="M332.957,169.619L332.957,248.044C332.976,248.398,333.079,248.741,333.256,249.048C333.433,249.354,333.68,249.615,333.976,249.808L336.168,251.057C336.483,251.216,336.831,251.299,337.184,251.299C337.537,251.299,337.886,251.216,338.201,251.057L340.393,249.808C340.688,249.614,340.933,249.353,341.109,249.047C341.286,248.74,341.387,248.397,341.406,248.044L341.406,169.619C341.406,168.973,340.951,168.71,340.393,169.033L338.201,170.282C337.886,170.441,337.537,170.524,337.184,170.524C336.831,170.524,336.483,170.441,336.168,170.282L333.976,169.033C333.417,168.726,332.957,168.973,332.957,169.619Z" fill="rgb(55,71,79)" stroke="none" stroke-width="1"/><path id="eIUlmfJyi6M20" d="M338.173,251.057L340.365,249.808C340.66,249.614,340.906,249.353,341.082,249.047C341.258,248.74,341.36,248.397,341.379,248.044L341.379,169.619C341.379,168.973,340.924,168.71,340.365,169.033L338.173,170.282C337.877,170.474,337.63,170.734,337.453,171.039C337.276,171.345,337.173,171.688,337.154,172.041L337.154,250.465C337.154,251.117,337.609,251.38,338.173,251.057Z" fill="rgb(69,90,100)" stroke="none" stroke-width="1"/><path id="eIUlmfJyi6M21" d="M48.9359,222.647L48.9359,221.908C48.971,221.266,49.157,220.641,49.4788,220.084C49.8006,219.527,50.2491,219.054,50.7879,218.703L249.474,104.019C250.048,103.727,250.682,103.575,251.326,103.575C251.97,103.575,252.604,103.727,253.178,104.019L353.231,161.791C353.769,162.142,354.217,162.616,354.539,163.172C354.861,163.729,355.047,164.354,355.083,164.996L355.083,165.73C355.047,166.372,354.861,166.998,354.539,167.555C354.217,168.113,353.769,168.587,353.231,168.94L154.517,283.624C153.944,283.916,153.311,284.068,152.668,284.068C152.025,284.068,151.391,283.916,150.819,283.624L50.7879,225.852C50.2485,225.502,49.7995,225.029,49.4777,224.472C49.1558,223.915,48.9702,223.29,48.9359,222.647Z" fill="rgb(42,45,48)" stroke="none" stroke-width="1"/><path id="eIUlmfJyi6M22" d="M152.687,279.061L152.687,284.074C152.043,284.082,151.407,283.932,150.835,283.635L50.7879,225.858C50.2494,225.506,49.8011,225.033,49.4794,224.476C49.1577,223.92,48.9715,223.295,48.9359,222.653L48.9359,221.913C48.9657,221.341,49.1157,220.781,49.3763,220.27C49.6368,219.76,50.0021,219.31,50.4482,218.95C49.7742,219.498,49.9003,220.319,50.7879,220.845L150.835,278.617C151.404,278.921,152.042,279.074,152.687,279.061Z" fill="rgb(23,24,25)" stroke="none" stroke-width="1"/><path id="eIUlmfJyi6M23" d="M50.7879,220.84L150.841,278.612C151.413,278.903,152.047,279.055,152.69,279.055C153.333,279.055,153.966,278.903,154.539,278.612L353.231,163.927C354.25,163.336,354.25,162.377,353.231,161.791L253.178,104.019C252.604,103.727,251.97,103.575,251.326,103.575C250.682,103.575,250.048,103.727,249.474,104.019L50.7879,218.703C49.7633,219.295,49.7633,220.253,50.7879,220.84Z" fill="rgb(62,67,71)" stroke="none" stroke-width="1"/><path id="eIUlmfJyi6M24" d="M239.37,192.474C239.358,192.348,239.313,192.227,239.239,192.123C239.165,192.02,239.064,191.939,238.948,191.888L221.896,182.027C221.581,181.868,221.233,181.785,220.88,181.785C220.527,181.785,220.179,181.868,219.864,182.027L167.837,212.108C167.721,212.159,167.621,212.24,167.547,212.343C167.472,212.446,167.427,212.567,167.415,212.694L167.415,214.48C167.427,214.606,167.472,214.727,167.547,214.83C167.621,214.933,167.721,215.015,167.837,215.066L184.878,224.926C185.194,225.086,185.543,225.169,185.897,225.169C186.251,225.169,186.6,225.086,186.916,224.926L238.97,194.895C239.086,194.843,239.185,194.762,239.259,194.659C239.334,194.556,239.379,194.435,239.392,194.309L239.37,192.474Z" fill="rgb(42,45,48)" stroke="none" stroke-width="1"/><path id="eIUlmfJyi6M25" d="M184.884,223.097L167.843,213.302C167.72,213.26,167.614,213.181,167.539,213.076C167.463,212.971,167.423,212.845,167.423,212.716C167.423,212.586,167.463,212.46,167.539,212.355C167.614,212.25,167.72,212.171,167.843,212.129L219.869,182.049C220.184,181.89,220.532,181.807,220.886,181.807C221.239,181.807,221.587,181.89,221.902,182.049L238.954,191.91C239.076,191.953,239.181,192.032,239.256,192.138C239.33,192.243,239.37,192.369,239.37,192.499C239.37,192.628,239.33,192.754,239.256,192.859C239.181,192.965,239.076,193.044,238.954,193.087L186.9,223.119C186.585,223.271,186.239,223.348,185.889,223.345C185.539,223.341,185.195,223.256,184.884,223.097Z" fill="rgb(62,67,71)" stroke="none" stroke-width="1"/><path id="eIUlmfJyi6M26" d="M185.832,223.338L185.832,225.151C185.499,225.15,185.172,225.07,184.878,224.915L167.843,215.055C167.727,215.003,167.628,214.921,167.553,214.818C167.479,214.715,167.434,214.595,167.421,214.469L167.421,212.672C167.434,212.798,167.479,212.918,167.553,213.021C167.628,213.124,167.727,213.206,167.843,213.258L184.878,223.058C185.169,223.227,185.496,223.323,185.832,223.338Z" fill="rgb(29,31,33)" stroke="none" stroke-width="1"/><path id="eIUlmfJyi6M27" d="M185.908,221.607L185.87,221.607L184.182,220.632L186.473,219.311L188.215,220.292L185.93,221.612L185.908,221.607ZM183.267,220.084L183.229,220.084L181.541,219.125L183.338,218.09L185.081,219.065L183.289,220.106L183.267,220.084ZM189.108,219.761L189.07,219.761L187.393,218.78L189.19,217.745L190.933,218.725L189.141,219.761L189.108,219.761ZM180.626,218.577L180.588,218.577L178.9,217.602L181.804,215.926L183.558,216.879L180.654,218.555L180.626,218.577ZM185.974,218.539C185.968,218.542,185.961,218.543,185.955,218.543C185.948,218.543,185.942,218.542,185.936,218.539L184.248,217.569L185.673,216.742L187.421,217.723L185.996,218.544L185.974,218.539ZM191.809,218.221L191.777,218.221L190.089,217.246L191.886,216.205L193.629,217.186L191.831,218.221L191.809,218.221ZM188.308,217.191L188.27,217.191L186.582,216.216L188.012,215.394L189.755,216.375L188.33,217.197L188.308,217.191ZM177.985,217.054L177.941,217.054L176.259,216.079L178.544,214.759L180.292,215.74L178.002,217.06L177.985,217.054ZM194.516,216.66L194.483,216.66L192.796,215.69L205.787,208.169L207.53,209.149L194.544,216.649L194.516,216.66ZM184.434,216.375C184.434,216.375,184.434,216.375,184.396,216.375L182.714,215.4L184.138,214.578L185.886,215.559L184.462,216.381L184.434,216.375ZM190.648,215.827L190.609,215.827L188.922,214.852L190.352,214.03L192.094,215.011L190.681,215.838L190.648,215.827ZM175.339,215.51L175.3,215.51L173.613,214.54L175.043,213.718L176.791,214.693L175.366,215.515L175.339,215.51ZM181.18,215.186L181.141,215.186L179.454,214.195L180.884,213.368L182.626,214.348L181.201,215.17L181.18,215.186ZM186.774,215.006L186.736,215.006L185.048,214.03L186.478,213.209L188.221,214.189L186.796,215.011L186.774,215.006ZM192.982,214.458L192.944,214.458L191.256,213.488L192.686,212.666L194.434,213.647L193.009,214.469L192.982,214.458ZM177.678,214.14L177.64,214.14L175.952,213.165L177.377,212.343L179.125,213.324L177.7,214.145L177.678,214.14ZM183.519,213.822L183.481,213.822L181.793,212.853L183.218,212.025L184.966,213.006L183.541,213.828L183.519,213.822ZM189.114,213.641L189.075,213.641L187.393,212.677L188.818,211.856L190.566,212.836L189.141,213.658L189.114,213.641ZM172.128,213.641L172.089,213.641L170.407,212.677L172.204,211.636L173.952,212.617L172.155,213.658L172.128,213.641ZM195.316,213.094L195.278,213.094L193.59,212.124L195.02,211.302L196.763,212.277L195.338,213.099L195.316,213.094ZM180.007,212.776L179.969,212.776L178.281,211.801L179.711,210.979L181.459,211.96L180.034,212.781L180.007,212.776ZM185.848,212.458L185.81,212.458L184.106,211.51L185.536,210.683L187.278,211.664L185.853,212.486L185.848,212.458ZM191.442,212.277L191.404,212.277L189.716,211.302L191.146,210.481L192.889,211.461L191.464,212.283L191.442,212.277ZM197.65,211.73L197.612,211.73L195.924,210.754L197.355,209.933L199.097,210.913L197.672,211.735L197.65,211.73ZM175.887,211.51L175.848,211.51L174.161,210.535L175.585,209.714L177.333,210.694L175.908,211.516L175.887,211.51ZM182.352,211.456L182.314,211.456L180.626,210.481L182.056,209.659L183.799,210.639L182.374,211.461L182.352,211.456ZM188.193,211.132C188.187,211.135,188.181,211.136,188.174,211.136C188.167,211.136,188.161,211.135,188.155,211.132L186.467,210.157L187.897,209.336L189.64,210.316L188.215,211.138L188.193,211.132ZM193.788,210.957L193.749,210.957L192.062,209.988L193.492,209.166L195.234,210.146L193.809,210.968L193.788,210.957ZM199.996,210.409L199.957,210.409L198.27,209.434L199.7,208.613L201.442,209.593L200.018,210.415L199.996,210.409ZM178.193,210.146L178.155,210.146L176.467,209.177L177.897,208.35L179.64,209.33L178.215,210.152L178.193,210.146ZM184.686,210.097L184.653,210.097L182.966,209.122L184.39,208.3L186.138,209.281L184.714,210.103L184.686,210.097ZM190.527,209.774L190.489,209.774L188.807,208.799L190.231,207.977L191.979,208.958L190.555,209.779L190.527,209.774ZM196.122,209.599L196.083,209.599L194.396,208.623L195.826,207.802L197.568,208.782L196.144,209.604L196.122,209.599ZM202.33,209.051L202.297,209.051L200.604,208.076L202.034,207.254L203.782,208.235L202.357,209.056L202.33,209.051ZM180.533,208.782L180.495,208.782L178.807,207.807L180.237,206.986L181.98,207.966L180.555,208.788L180.533,208.782ZM187.026,208.739L186.988,208.739L185.3,207.769L186.73,206.947L188.473,207.928L187.048,208.749L187.026,208.739ZM208.395,208.585L208.357,208.585L206.691,207.621L208.489,206.586L210.236,207.566L208.439,208.602L208.395,208.585ZM192.872,208.443L192.834,208.443L191.146,207.468L192.577,206.64L194.319,207.621L192.894,208.443L192.872,208.443ZM198.467,208.262L198.429,208.262L196.741,207.287L198.171,206.465L199.913,207.446L198.489,208.267L198.467,208.262ZM204.675,207.714L204.637,207.714L202.949,206.739L204.379,205.917L206.121,206.898L204.697,207.72L204.675,207.714ZM182.873,207.446L182.834,207.446L181.152,206.471L182.577,205.649L184.325,206.629L182.9,207.451L182.873,207.446ZM189.371,207.402L189.333,207.402L187.645,206.427L189.075,205.605L190.818,206.586L189.393,207.407L189.371,207.402ZM195.212,207.079L195.174,207.079L193.486,206.104L194.911,205.276L196.659,206.257L195.234,207.079L195.212,207.079ZM211.13,207.035C211.124,207.037,211.117,207.039,211.11,207.039C211.104,207.039,211.097,207.037,211.091,207.035L209.404,206.06L211.201,205.024L212.949,205.999L211.151,207.04L211.13,207.035ZM200.807,206.898L200.763,206.898L199.081,205.923L200.505,205.101L202.253,206.082L200.828,206.903L200.807,206.898ZM207.015,206.35L206.971,206.35L205.283,205.43L206.708,204.608L208.456,205.589L207.031,206.41L207.015,206.35ZM191.705,206.032L191.667,206.032L189.979,205.057L191.409,204.236L193.152,205.216L191.727,206.038L191.705,206.032ZM197.546,205.715L197.508,205.715L195.82,204.739L197.25,203.918L198.993,204.893L197.568,205.715L197.546,205.715ZM203.141,205.534L203.102,205.534L201.415,204.559L202.845,203.737L204.587,204.718L203.163,205.539L203.141,205.534ZM186.232,205.495L186.193,205.495L184.506,204.52L185.93,203.693L187.678,204.674L186.253,205.495L186.232,205.495ZM213.836,205.457L213.798,205.457L212.11,204.482L213.908,203.447L215.656,204.427L213.858,205.463L213.836,205.457ZM209.349,204.997L209.31,204.997L207.623,204.022L209.053,203.2L210.795,204.181L209.371,205.002L209.349,204.997ZM194.045,204.685L194.007,204.685L192.325,203.737L193.755,202.91L195.497,203.89L194.072,204.712L194.045,204.685ZM199.886,204.362L199.848,204.362L198.16,203.386L199.585,202.559L201.333,203.54L199.908,204.362L199.886,204.362ZM205.48,204.181L205.442,204.181L203.749,203.238L205.174,202.417L206.921,203.397L205.497,204.219L205.48,204.181ZM188.566,204.142L188.527,204.142L186.845,203.195L188.275,202.373L190.018,203.354L188.593,204.175L188.566,204.142ZM216.543,203.896L216.505,203.896L214.79,202.948L217.08,201.628L218.823,202.609L216.538,203.929L216.543,203.896ZM211.688,203.649L211.65,203.649L209.957,202.691L214.461,200.089L216.203,201.069L211.705,203.666L211.688,203.649ZM196.379,203.332L196.341,203.332L194.653,202.357L196.083,201.535L197.831,202.515L196.407,203.337L196.379,203.332ZM202.22,203.014L202.182,203.014L200.494,202.044L201.924,201.217L203.672,202.198L202.248,203.019L202.22,203.014ZM207.815,202.833L207.776,202.833L206.089,201.858L207.519,201.036L209.261,202.017L207.837,202.839L207.815,202.833ZM190.905,202.795L190.867,202.795L189.179,201.82L190.609,200.992L192.352,201.973L190.927,202.795L190.905,202.795ZM198.719,201.984L198.681,201.984L196.987,201.047L198.418,200.226L200.16,201.206L198.735,202.028L198.719,201.984ZM220.236,201.765L220.198,201.765L218.51,200.79L219.94,199.968L221.683,200.949L220.258,201.77L220.236,201.765ZM204.56,201.661L204.522,201.661L202.834,200.686L204.264,199.864L206.006,200.845L204.582,201.666L204.56,201.661ZM210.154,201.485L210.116,201.485L208.428,200.516L209.732,199.76C209.775,199.737,209.812,199.703,209.838,199.662C209.864,199.62,209.878,199.573,209.88,199.524C209.877,199.472,209.861,199.422,209.833,199.378C209.806,199.334,209.767,199.297,209.721,199.272L207.53,197.996L209.206,197.032L213.59,199.535L210.193,201.491L210.154,201.485ZM193.24,201.447L193.201,201.447L191.508,200.499L192.938,199.678L194.686,200.658L193.261,201.48L193.24,201.447ZM201.059,200.636L201.02,200.636L199.333,199.661L200.757,198.834L202.505,199.815L201.08,200.636L201.059,200.636ZM222.57,200.417L222.532,200.417L220.817,199.47L222.247,198.648L223.99,199.628L222.565,200.45L222.57,200.417ZM206.9,200.313C206.894,200.316,206.887,200.318,206.88,200.318C206.874,200.318,206.867,200.316,206.861,200.313L205.168,199.338L206.598,198.516L208.346,199.497L206.921,200.319L206.9,200.313ZM196.598,199.508C196.592,199.511,196.586,199.512,196.579,199.512C196.573,199.512,196.566,199.511,196.56,199.508L194.872,198.533L196.297,197.711L198.045,198.692L196.62,199.513L196.598,199.508ZM203.393,199.289L203.354,199.289L201.639,198.341L203.069,197.519L204.817,198.5L203.393,199.322L203.393,199.289ZM224.91,199.07C224.904,199.073,224.898,199.074,224.891,199.074C224.884,199.074,224.878,199.073,224.872,199.07L223.184,198.1L224.614,197.278L226.351,198.308L224.927,199.13L224.91,199.07ZM219.929,198.894L219.891,198.894L218.203,197.919L219.634,197.098L221.376,198.078L219.951,198.9L219.929,198.894ZM198.933,198.16C198.927,198.163,198.92,198.164,198.913,198.164C198.907,198.164,198.9,198.163,198.894,198.16L197.201,197.213L198.631,196.391L200.374,197.371L198.949,198.193L198.933,198.16ZM205.727,197.941L205.689,197.941L204.001,196.966L206.538,195.503L208.286,196.484L205.749,197.941L205.727,197.941ZM227.737,197.437L227.699,197.437L226.011,196.468L229.776,194.276L231.524,195.257L227.759,197.448L227.737,197.437ZM212.302,197.213L212.264,197.213L210.576,196.237L212.006,195.41L213.749,196.391L212.324,197.213L212.302,197.213ZM201.261,196.835L201.223,196.835L199.535,195.865L200.965,195.043L202.708,196.024L201.283,196.846L201.261,196.835ZM225.091,195.931L225.053,195.931L223.365,194.956L224.795,194.128L226.537,195.109L225.113,195.931L225.091,195.931ZM214.636,195.865L214.598,195.865L212.916,194.895L214.34,194.068L216.083,195.049L214.658,195.87L214.636,195.865ZM209.661,195.684L209.623,195.684L207.935,194.709L209.365,193.887L211.108,194.868L209.683,195.69L209.661,195.684ZM203.601,195.481C203.595,195.484,203.588,195.486,203.582,195.486C203.575,195.486,203.569,195.484,203.563,195.481L201.875,194.506L203.305,193.685L205.048,194.665L203.623,195.487L203.601,195.481ZM232.406,194.758L232.367,194.758L230.68,193.789L232.11,192.962L233.852,193.942L232.428,194.764L232.406,194.758ZM227.425,194.583L227.387,194.583L225.699,193.613L227.129,192.792L228.872,193.772L227.447,194.594L227.425,194.583ZM216.982,194.523L216.943,194.523L215.256,193.548L216.686,192.726L218.428,193.707L217.003,194.528L216.982,194.523ZM222.461,194.413L222.422,194.413L220.729,193.438L222.159,192.616L223.907,193.597L222.483,194.419L222.461,194.413ZM212.006,194.347L211.968,194.347L210.275,193.378L211.705,192.556L213.447,193.537L212.023,194.358L212.006,194.347ZM206.467,193.844C206.461,193.846,206.454,193.848,206.447,193.848C206.441,193.848,206.434,193.846,206.428,193.844L204.741,192.868L206.165,192.047L207.913,193.027L206.489,193.849L206.467,193.844ZM234.751,193.416L234.713,193.416L230.384,190.918L231.814,190.091L236.198,192.6L234.773,193.422L234.751,193.416ZM229.776,193.241L229.737,193.241L228.039,192.282L229.469,191.461L231.211,192.441L229.787,193.263L229.776,193.241ZM224.795,193.066L224.757,193.066L223.069,192.09L224.499,191.269L226.242,192.249L224.817,193.071L224.795,193.066ZM214.346,193L214.308,193L212.598,192.019L214.028,191.192L215.771,192.173L214.346,192.994L214.346,193ZM219.825,192.89L219.787,192.89L218.077,191.91L219.502,191.088L221.25,192.069L219.825,192.89ZM208.812,192.496L208.763,192.496L207.069,191.521L208.5,190.699L210.247,191.68L208.823,192.501L208.812,192.496ZM227.124,191.734L227.085,191.734L225.398,190.759L226.828,189.938L228.57,190.918L227.146,191.74L227.124,191.734ZM222.143,191.559L222.11,191.559L220.417,190.584L221.847,189.762L223.595,190.743L222.17,191.565L222.143,191.559ZM217.168,191.384L217.129,191.384L215.442,190.414L216.866,189.587L218.614,190.568L217.19,191.389L217.168,191.384ZM211.141,191.165L211.102,191.165L209.415,190.195L210.845,189.368L212.587,190.348L211.162,191.17L211.141,191.165ZM229.474,190.381L229.431,190.381L225.102,187.883L226.532,187.062L230.915,189.565L229.491,190.387L229.474,190.381ZM224.494,190.206L224.455,190.206L222.768,189.231L224.198,188.409L225.94,189.39L224.516,190.211L224.494,190.206ZM219.513,190.031L219.48,190.031L217.787,189.056L219.217,188.234L220.96,189.214L219.535,190.036L219.513,190.031ZM213.294,189.138L213.256,189.138L212.521,188.727L213.951,187.9L214.735,188.327L213.316,189.149L213.294,189.138ZM221.853,188.683L221.814,188.683L220.127,187.708L221.557,186.881L223.299,187.861L221.875,188.683L221.853,188.683ZM215.628,187.79L215.59,187.79L214.861,187.374L216.286,186.552L217.069,186.974L215.65,187.796L215.628,187.79ZM224.187,187.335L224.148,187.335L222.461,186.338L223.891,185.517L225.633,186.497L224.209,187.319L224.187,187.335ZM217.968,186.443L217.929,186.443L217.195,186.032L218.625,185.161L219.409,185.582L217.99,186.404L217.968,186.443ZM220.307,185.089C220.293,185.095,220.278,185.095,220.264,185.089L219.535,184.679L220.96,183.851L221.749,184.273L220.324,185.095L220.307,185.089Z" fill="rgb(42,44,48)" stroke="none" stroke-width="1"/><path id="eIUlmfJyi6M28" d="M178.374,195.328L191.996,187.456C193.398,186.645,194.1,185.582,194.1,184.52C194.1,183.457,194.1,182.624,194.1,182.624L177.706,173.339C177.311,173.081,176.982,172.734,176.747,172.326C176.512,171.918,176.377,171.459,176.352,170.989L176.352,154.198L152.556,167.943L152.556,184.739C152.582,185.209,152.719,185.666,152.955,186.073C153.191,186.48,153.52,186.827,153.914,187.083L168.215,195.328C171.01,196.95,175.563,196.95,178.374,195.328Z" fill="rgb(29,31,33)" stroke="none" stroke-width="1"/><path id="eIUlmfJyi6M29" d="M158.276,187.708L158.276,189.598L153.892,187.084C153.498,186.827,153.169,186.481,152.934,186.074C152.699,185.666,152.564,185.209,152.539,184.739L152.539,167.948L157.071,165.33C157.164,166.48,157.268,167.674,157.361,168.83L154.183,170.671L154.183,183.791C154.207,184.261,154.343,184.718,154.578,185.126C154.813,185.534,155.142,185.88,155.536,186.136L158.276,187.708Z" fill="rgb(29,31,33)" stroke="none" stroke-width="1"/><path id="eIUlmfJyi6M30" d="M154.205,183.791C154.229,184.262,154.365,184.72,154.6,185.128C154.835,185.537,155.163,185.884,155.558,186.141L168.215,193.438C171.026,195.054,175.58,195.054,178.385,193.438L192.018,185.561C194.823,183.917,194.823,181.315,192.018,179.693L179.371,172.391C178.976,172.135,178.647,171.789,178.411,171.382C178.174,170.974,178.038,170.517,178.013,170.046L178.013,156.899L154.221,170.644L154.205,183.791Z" fill="rgb(62,67,71)" stroke="none" stroke-width="1"/><g id="eIUlmfJyi6M31" opacity="0.6"><rect id="eIUlmfJyi6M32" width="67.3958" height="70.6678" rx="0" ry="0" transform="matrix(1 0 0 1 134.457 136.849)" fill="none" stroke="none" stroke-width="1"/></g><path id="eIUlmfJyi6M33" d="M194.105,182.624L194.105,184.52C194.105,185.582,193.399,186.64,192.001,187.456L178.374,195.328C176.88,196.124,175.212,196.538,173.519,196.533L173.519,194.643C175.213,194.653,176.882,194.239,178.374,193.438L192.001,185.561C193.42,184.755,194.105,183.693,194.105,182.624Z" fill="rgb(42,45,48)" stroke="none" stroke-width="1"/><path id="eIUlmfJyi6M34" d="M78.0038,218.906C78.518,219.155,79.0836,219.279,79.6548,219.268C80.2259,219.258,80.7866,219.113,81.2914,218.846C92.9842,212.091,227.392,135.145,239.107,128.391C239.599,128.069,240.009,127.636,240.303,127.127C240.597,126.618,240.767,126.047,240.8,125.46L240.8,44.9206C240.821,44.3422,240.684,43.7689,240.404,43.2626C240.123,42.7562,239.71,42.3359,239.209,42.0468C238.707,41.7578,238.136,41.6109,237.557,41.6221C236.978,41.6333,236.414,41.8021,235.924,42.1103L78.1079,132.571C77.615,132.893,77.205,133.327,76.9108,133.837C76.6167,134.347,76.4468,134.919,76.4147,135.507L76.4147,216.035C76.4366,216.605,76.5918,217.161,76.8677,217.66C77.1437,218.158,77.5328,218.585,78.0038,218.906Z" fill="rgb(62,67,71)" stroke="none" stroke-width="1"/><path id="eIUlmfJyi6M35" d="M81.1927,219.339L239.107,128.402C239.6,128.079,240.01,127.646,240.304,127.136C240.598,126.626,240.768,126.053,240.8,125.466L240.8,44.9206C240.8,43.825,240.044,43.4032,239.107,43.94L81.1927,134.877C80.7006,135.199,80.291,135.632,79.9969,136.141C79.7028,136.65,79.5325,137.221,79.4996,137.808L79.4996,218.336C79.4996,219.443,80.2558,219.881,81.1927,219.339Z" fill="rgb(42,45,48)" stroke="none" stroke-width="1"/><path id="eIUlmfJyi6M36" d="M83.1927,202.515L83.1927,138.783C83.211,138.43,83.313,138.086,83.4902,137.781C83.6674,137.475,83.9147,137.216,84.2118,137.024L236.603,49.073C237.151,48.7443,237.617,49.0073,237.617,49.6592L237.617,113.397C237.598,113.75,237.496,114.093,237.32,114.4C237.144,114.706,236.898,114.967,236.603,115.161L84.2118,203.102C83.6529,203.425,83.1927,203.162,83.1927,202.515Z" fill="rgb(62,67,71)" stroke="none" stroke-width="1"/><path id="eIUlmfJyi6M37" d="M80.1133,135.617C79.8095,136.123,79.638,136.697,79.6147,137.287L79.5873,217.482L80.5243,219.202C79.8276,219.301,79.1182,219.262,78.4366,219.087C77.8589,218.833,77.3649,218.421,77.012,217.898C76.5376,217.271,76.3165,216.489,76.3928,215.707L76.4367,135.469C76.4581,134.877,76.6297,134.3,76.9353,133.792L80.1133,135.617Z" fill="rgb(23,24,25)" stroke="none" stroke-width="1"/><g id="eIUlmfJyi6M38" opacity="0.33"><rect id="eIUlmfJyi6M39" width="80.5462" height="61.9028" rx="0" ry="0" transform="matrix(1 0 0 1 225.414 100.693)" fill="none" stroke="none" stroke-width="1"/></g><path id="eIUlmfJyi6M40" d="M251.879,123.691C251.782,123.739,251.674,123.765,251.564,123.765C251.455,123.765,251.347,123.739,251.249,123.691C251.224,123.683,251.201,123.671,251.182,123.654C251.162,123.638,251.145,123.617,251.134,123.594C251.122,123.571,251.115,123.546,251.113,123.52C251.111,123.494,251.115,123.469,251.123,123.444C251.134,123.416,251.15,123.39,251.172,123.369C251.194,123.348,251.22,123.333,251.249,123.324C251.347,123.275,251.455,123.25,251.564,123.25C251.674,123.25,251.782,123.275,251.879,123.324C251.919,123.336,251.953,123.36,251.978,123.393C252.002,123.426,252.016,123.466,252.016,123.507C252.016,123.548,252.002,123.588,251.978,123.621C251.953,123.654,251.919,123.679,251.879,123.691Z" fill="rgb(38,50,56)" stroke="none" stroke-width="1"/><path id="eIUlmfJyi6M41" d="M251.951,122.069C251.864,122.135,251.763,122.178,251.656,122.194C251.548,122.21,251.439,122.199,251.337,122.162C251.123,122.091,251.052,121.932,251.173,121.812C251.259,121.746,251.36,121.703,251.467,121.687C251.575,121.67,251.684,121.681,251.786,121.719C252.005,121.79,252.077,121.943,251.951,122.069Z" fill="rgb(38,50,56)" stroke="none" stroke-width="1"/><path id="eIUlmfJyi6M42" d="M252,120.437C251.934,120.515,251.849,120.573,251.752,120.605C251.655,120.637,251.551,120.641,251.452,120.617C251.211,120.579,251.068,120.437,251.134,120.3C251.2,120.222,251.286,120.163,251.382,120.131C251.479,120.099,251.583,120.095,251.682,120.119C251.923,120.152,252.049,120.294,252,120.437Z" fill="rgb(89,95,100)" stroke="none" stroke-width="1"/><path id="eIUlmfJyi6M43" d="M187.442,246.16C187.43,246.034,187.384,245.913,187.31,245.81C187.236,245.707,187.136,245.626,187.021,245.573L166.791,233.916C166.477,233.752,166.128,233.666,165.774,233.666C165.42,233.666,165.072,233.752,164.758,233.916L134.989,251.095C134.873,251.148,134.773,251.229,134.699,251.332C134.625,251.435,134.58,251.555,134.567,251.682L134.567,252.607C134.58,252.733,134.626,252.852,134.7,252.954C134.774,253.056,134.874,253.137,134.989,253.188L155.219,264.867C155.534,265.027,155.882,265.11,156.235,265.11C156.588,265.11,156.936,265.027,157.251,264.867L187.021,247.683C187.135,247.631,187.235,247.55,187.309,247.448C187.383,247.346,187.429,247.227,187.442,247.102L187.442,246.16Z" fill="rgb(42,45,48)" stroke="none" stroke-width="1"/><path id="eIUlmfJyi6M44" d="M134.989,251.079L164.758,233.916C165.072,233.752,165.42,233.666,165.774,233.666C166.128,233.666,166.477,233.752,166.791,233.916L187.021,245.59C187.143,245.632,187.249,245.71,187.325,245.816C187.4,245.921,187.441,246.047,187.441,246.176C187.441,246.305,187.4,246.431,187.325,246.537C187.249,246.642,187.143,246.721,187.021,246.762L157.257,263.931C156.942,264.09,156.594,264.173,156.24,264.173C155.887,264.173,155.539,264.09,155.224,263.931L134.994,252.257C134.838,252.203,134.71,252.09,134.637,251.942C134.564,251.795,134.553,251.624,134.605,251.468C134.636,251.379,134.687,251.297,134.753,251.23C134.819,251.163,134.9,251.111,134.989,251.079Z" fill="rgb(62,67,71)" stroke="none" stroke-width="1"/><path id="eIUlmfJyi6M45" d="M156.232,264.172L156.232,265.092C155.877,265.099,155.526,265.014,155.213,264.845L134.989,253.177C134.873,253.125,134.773,253.043,134.699,252.94C134.625,252.837,134.58,252.717,134.567,252.591L134.567,251.665C134.578,251.792,134.622,251.915,134.697,252.019C134.771,252.123,134.872,252.205,134.989,252.257L155.213,263.931C155.525,264.1,155.877,264.183,156.232,264.172Z" fill="rgb(29,31,33)" stroke="none" stroke-width="1"/><path id="eIUlmfJyi6M46" d="M136.868,246.149L166.637,228.986C166.953,228.826,167.301,228.743,167.654,228.743C168.007,228.743,168.355,228.826,168.67,228.986L188.9,240.659C189.056,240.713,189.184,240.826,189.257,240.974C189.33,241.122,189.341,241.292,189.289,241.448C189.256,241.538,189.205,241.619,189.138,241.686C189.07,241.753,188.989,241.805,188.9,241.837L159.131,259.017C158.817,259.181,158.468,259.267,158.114,259.267C157.76,259.267,157.412,259.181,157.098,259.017L136.868,247.343C136.725,247.254,136.621,247.114,136.577,246.951C136.533,246.788,136.553,246.615,136.633,246.466C136.698,246.352,136.778,246.245,136.868,246.149Z" fill="rgb(62,67,71)" stroke="none" stroke-width="1"/><path id="eIUlmfJyi6M47" d="M283.725,279.746C283.725,279.587,284.624,270.466,284.624,270.466C284.624,270.466,283.972,271.403,278.706,270.932C276.704,270.685,274.734,270.23,272.827,269.573L272.482,276.191C271.561,278.875,266.915,278.508,261.945,278.787C261.107,278.831,260.241,278.842,259.375,278.842L259.32,278.842C256.663,279.149,254.29,281.181,257.414,282.962C260.537,284.742,265.194,284.813,269.468,284.852C274.646,284.895,283.681,284.862,283.725,279.746Z" fill="rgb(255,168,167)" stroke="none" stroke-width="1"/><path id="eIUlmfJyi6M48" d="M248.592,284.967C248.379,285.872,248.411,286.817,248.685,287.706C248.948,288.659,251.912,291.54,256.498,292.833C261.085,294.126,266.361,293.381,268.937,293.644C271.512,293.907,274.005,294.959,277.024,295.167C280.131,295.381,282.964,295.26,285.539,292.85C285.933,291.935,286.196,289.93,285.994,289.776C285.473,289.355,248.592,284.967,248.592,284.967Z" opacity="0.9" fill="rgb(62,67,71)" stroke="none" stroke-width="1"/><path id="eIUlmfJyi6M49" d="M271.862,277.193C270.219,278.804,266.197,278.568,261.945,278.837C257.929,279.061,253.26,278.437,250.745,279.823C248.23,281.209,247.797,284.337,252.104,287.75C253.348,288.736,254.745,290.045,256.104,290.582C260.608,292.351,265.353,291.431,268.367,291.645C272.284,291.929,274.63,293.244,278.175,293.052C282.766,292.806,285.418,291.157,285.988,289.826C286.558,288.495,285.627,278.672,283.731,279.204C283.731,279.204,283.457,282.491,275.577,280.694C272.142,279.867,271.857,277.9,271.862,277.193Z" fill="rgb(29,31,33)" stroke="none" stroke-width="1"/><path id="eIUlmfJyi6M50" d="M256.104,290.532C256.104,290.532,254.57,280.332,260.339,278.837L261.085,278.809C261.085,278.809,260.97,278.113,258.69,277.933C254.307,277.588,251.567,278.141,249.704,280.02C249.158,280.686,248.771,281.468,248.573,282.306C248.375,283.144,248.37,284.017,248.559,284.857C249.123,286.84,251.381,289.108,256.104,290.532Z" fill="rgb(255,255,255)" stroke="none" stroke-width="1"/><path id="eIUlmfJyi6M51" d="M260.268,284.512C260.268,284.512,259.989,280.343,262.833,278.743C263.082,278.574,263.374,278.477,263.675,278.466C263.977,278.454,264.275,278.528,264.537,278.678C264.537,278.678,261.797,279.565,261.698,284.523C261.698,284.523,261.611,284.863,260.981,284.857C260.767,284.863,260.296,284.863,260.268,284.512Z" fill="rgb(255,255,255)" stroke="none" stroke-width="1"/><path id="eIUlmfJyi6M52" d="M267.172,278.552C267.172,278.552,267.172,278.415,266.411,278.404C266.121,278.387,265.835,278.47,265.6,278.639C265.6,278.639,263.507,280.003,263.819,284.353C263.871,284.523,263.98,284.671,264.127,284.77C264.275,284.87,264.452,284.916,264.63,284.901C264.794,284.93,264.963,284.892,265.099,284.797C265.236,284.701,265.329,284.555,265.359,284.391C265.359,284.391,265.359,284.359,265.359,284.348C265.359,284.337,265.057,279.751,267.172,278.552Z" fill="rgb(255,255,255)" stroke="none" stroke-width="1"/><path id="eIUlmfJyi6M53" d="M269.583,278.229C269.583,278.229,269.413,277.993,268.882,278.086C268.213,278.201,268.104,278.486,268.104,278.486C268.104,278.486,266.778,280.409,267.375,283.964C267.375,283.964,267.413,284.583,268.263,284.512C269.112,284.441,268.882,283.767,268.882,283.767C268.882,283.767,268.411,279.171,269.583,278.229Z" fill="rgb(255,255,255)" stroke="none" stroke-width="1"/><path id="eIUlmfJyi6M54" d="M272.01,220.768C271.632,229.901,271.939,272.362,271.939,272.362C271.939,272.362,277.545,277.073,284.624,274.64L289.007,225.885L272.01,220.768Z" fill="rgb(29,31,33)" stroke="none" stroke-width="1"/><path id="eIUlmfJyi6M55" d="M258.624,295.392C258.624,295.238,260.268,286.517,260.268,286.517C260.268,286.517,258.624,287.613,253.326,287.322C251.558,287.196,249.809,286.869,248.115,286.347L247.266,292.773C246.427,295.479,241.611,295.896,236.652,296.323C235.819,296.4,234.521,296.323,233.65,296.323L234.033,296.46C231.387,296.849,229.239,298.311,232.389,299.993C235.54,301.675,240.225,301.637,244.515,301.516C249.693,301.407,258.707,300.514,258.624,295.392Z" fill="rgb(255,168,167)" stroke="none" stroke-width="1"/><path id="eIUlmfJyi6M56" d="M223.82,299.933C223.82,299.933,223.321,302.124,223.82,303.768C224.11,304.715,227.162,308.764,231.787,309.914C236.411,311.064,241.649,310.139,244.247,310.347C246.844,310.555,249.353,311.503,252.373,311.623C255.485,311.744,258.312,311.536,260.816,309.049C261.178,308.123,261.364,306.112,261.178,305.959C260.619,305.537,223.82,299.933,223.82,299.933Z" opacity="0.9" fill="rgb(62,67,71)" stroke="none" stroke-width="1"/><path id="eIUlmfJyi6M57" d="M246.669,293.77C245.074,295.413,241.052,295.315,236.806,295.682C232.806,296.032,228.115,295.55,225.644,297.008C223.173,298.465,222.833,301.609,227.239,304.896C228.515,305.849,229.951,307.087,231.326,307.602C235.885,309.246,240.597,308.15,243.617,308.298C247.545,308.462,249.923,309.706,253.479,309.394C258.066,309.005,260.663,307.279,261.194,305.931C261.726,304.584,260.493,294.794,258.613,295.381C258.613,295.381,258.438,298.667,250.51,297.117C247.03,296.454,246.685,294.493,246.669,293.77Z" fill="rgb(29,31,33)" stroke="none" stroke-width="1"/><path id="eIUlmfJyi6M58" d="M235.304,301.456C235.304,301.456,234.899,297.298,237.688,295.611C237.933,295.434,238.222,295.329,238.523,295.309C238.825,295.288,239.126,295.353,239.392,295.496C239.392,295.496,236.68,296.465,236.735,301.423C236.735,301.423,236.652,301.768,236.022,301.785C235.814,301.785,235.343,301.795,235.304,301.456Z" fill="rgb(255,255,255)" stroke="none" stroke-width="1"/><path id="eIUlmfJyi6M59" d="M242.022,295.271C242.022,295.271,242.022,295.134,241.26,295.145C240.971,295.138,240.687,295.228,240.455,295.402C240.455,295.402,238.406,296.827,238.85,301.171C238.909,301.337,239.022,301.477,239.171,301.571C239.32,301.664,239.497,301.705,239.671,301.686C239.839,301.708,240.007,301.662,240.141,301.559C240.275,301.457,240.362,301.305,240.384,301.138C240.386,301.124,240.386,301.109,240.384,301.094C240.384,301.094,239.945,296.558,242.022,295.271Z" fill="rgb(255,255,255)" stroke="none" stroke-width="1"/><path id="eIUlmfJyi6M60" d="M244.449,294.893C244.449,294.893,244.269,294.663,243.743,294.773C243.08,294.909,242.975,295.2,242.975,295.2C242.975,295.2,241.71,297.161,242.428,300.716C242.428,300.716,242.482,301.335,243.337,301.226C244.192,301.116,243.929,300.459,243.929,300.459C243.929,300.459,243.282,295.874,244.449,294.893Z" fill="rgb(255,255,255)" stroke="none" stroke-width="1"/><path id="eIUlmfJyi6M61" d="M249.748,238.501C248.679,247.962,247.677,275.336,246.97,289.015C251.169,291.218,256.044,291.759,260.624,290.532L270.372,241.405L249.748,238.501Z" fill="rgb(23,24,25)" stroke="none" stroke-width="1"/><path id="eIUlmfJyi6M62" d="M311.067,350.567C310.764,350.567,310.474,350.447,310.259,350.234C310.045,350.02,309.923,349.73,309.922,349.428L309.922,276.065C309.935,275.774,310.058,275.5,310.265,275.297C310.473,275.093,310.751,274.977,311.041,274.971C311.332,274.964,311.614,275.069,311.831,275.263C312.047,275.457,312.181,275.726,312.207,276.015L312.207,349.422C312.207,349.724,312.087,350.014,311.873,350.228C311.659,350.442,311.369,350.562,311.067,350.562L311.067,350.567Z" fill="rgb(23,24,25)" stroke="none" stroke-width="1"/><path id="eIUlmfJyi6M63" d="M356.463,323.867C356.235,323.866,356.012,323.797,355.823,323.668C355.635,323.539,355.489,323.356,355.406,323.144L332.902,266.204C332.791,265.923,332.796,265.609,332.916,265.332C333.037,265.054,333.262,264.836,333.543,264.725C333.825,264.614,334.138,264.619,334.416,264.739C334.693,264.859,334.912,265.085,335.023,265.366L357.526,322.306C357.594,322.479,357.618,322.666,357.597,322.851C357.577,323.036,357.511,323.213,357.406,323.366C357.302,323.52,357.161,323.646,356.997,323.733C356.832,323.82,356.649,323.866,356.463,323.867Z" fill="rgb(23,24,25)" stroke="none" stroke-width="1"/><path id="eIUlmfJyi6M64" d="M353.762,317.025C353.607,317.025,353.454,316.994,353.311,316.933C353.169,316.871,353.041,316.781,352.935,316.669L311.067,272.372L269.271,316.482C269.068,316.707,268.784,316.841,268.482,316.857C268.18,316.872,267.884,316.767,267.66,316.564C267.435,316.362,267.301,316.078,267.285,315.776C267.27,315.474,267.375,315.178,267.578,314.954L267.616,314.91L310.234,269.929C310.341,269.818,310.47,269.728,310.612,269.667C310.754,269.606,310.907,269.574,311.062,269.573C311.217,269.574,311.371,269.605,311.514,269.667C311.657,269.728,311.787,269.817,311.895,269.929L354.589,315.102C354.742,315.264,354.844,315.467,354.882,315.687C354.921,315.906,354.895,316.132,354.807,316.337C354.719,316.541,354.573,316.716,354.388,316.839C354.202,316.962,353.985,317.029,353.762,317.03L353.762,317.025Z" fill="rgb(23,24,25)" stroke="none" stroke-width="1"/><path id="eIUlmfJyi6M65" d="M265.665,323.867C265.523,323.867,265.381,323.839,265.249,323.785C264.968,323.673,264.742,323.455,264.621,323.178C264.499,322.901,264.493,322.587,264.602,322.306L287.117,265.366C287.17,265.226,287.249,265.097,287.351,264.987C287.454,264.878,287.576,264.79,287.713,264.728C287.849,264.666,287.996,264.631,288.146,264.626C288.296,264.621,288.445,264.645,288.585,264.698C288.726,264.75,288.854,264.83,288.964,264.932C289.073,265.034,289.162,265.157,289.224,265.293C289.286,265.43,289.321,265.577,289.326,265.726C289.331,265.876,289.306,266.025,289.254,266.166L289.254,266.204L266.728,323.144C266.645,323.357,266.498,323.54,266.309,323.669C266.119,323.798,265.895,323.867,265.665,323.867Z" fill="rgb(23,24,25)" stroke="none" stroke-width="1"/><path id="eIUlmfJyi6M66" d="M265.117,250.898C264.296,246.297,268.049,242.681,275.101,237.942C281.637,233.633,288.468,229.789,295.544,226.438C301.445,223.732,307.484,223.979,315.04,227.863C325.538,233.259,357.126,252.41,357.126,252.41C357.126,252.41,309.9,279.1,300.815,277.9C291.731,276.7,269.035,261.942,267.216,256.743C265.397,251.545,265.117,250.898,265.117,250.898Z" fill="rgb(60,65,69)" stroke="none" stroke-width="1"/><path id="eIUlmfJyi6M67" d="M305.369,272.296C298.591,278.431,291.506,273.15,280.29,265.875C267.605,257.658,265.112,250.909,265.112,250.909C265.112,250.909,265.112,255.954,266.06,258.321C267.008,260.688,269.057,263.366,278.208,269.677C287.358,275.988,293.988,279.143,300.125,280.31L304.98,279.642" fill="rgb(29,31,33)" stroke="none" stroke-width="1"/><path id="eIUlmfJyi6M68" d="M354.913,315.266L357.888,323.116C357.906,323.182,357.915,323.251,357.915,323.319C357.921,323.366,357.921,323.414,357.915,323.461C357.833,323.676,357.672,323.852,357.466,323.954C357.185,324.095,356.876,324.168,356.562,324.168C356.248,324.168,355.939,324.095,355.658,323.954C355.503,323.872,355.38,323.741,355.307,323.582L355.307,323.472L352.568,316.11L354.913,315.266Z" fill="rgb(62,67,71)" stroke="none" stroke-width="1"/><path id="eIUlmfJyi6M69" d="M267.216,315.266L264.241,323.116C264.223,323.182,264.214,323.251,264.213,323.319L264.213,323.461C264.3,323.674,264.459,323.849,264.663,323.954C264.943,324.095,265.253,324.168,265.567,324.168C265.881,324.168,266.19,324.095,266.471,323.954C266.627,323.872,266.752,323.742,266.827,323.582L266.827,323.472L269.567,316.11L267.216,315.266Z" fill="rgb(62,67,71)" stroke="none" stroke-width="1"/><path id="eIUlmfJyi6M70" d="M312.382,343.747L312.382,350.238C312.374,350.356,312.334,350.469,312.266,350.565C312.198,350.662,312.106,350.738,311.999,350.786C311.71,350.932,311.391,351.008,311.067,351.008C310.744,351.008,310.424,350.932,310.136,350.786C310.029,350.738,309.936,350.661,309.869,350.565C309.802,350.468,309.761,350.356,309.752,350.238L309.752,343.747C310.157,343.531,310.608,343.418,311.067,343.418C311.526,343.418,311.977,343.531,312.382,343.747Z" fill="rgb(62,67,71)" stroke="none" stroke-width="1"/><path id="eIUlmfJyi6M71" d="M342.305,232.656C342.305,232.656,304.415,221.229,297.829,219.426C291.243,217.624,278.608,214.584,274.915,216.238C271.221,217.892,269.348,219.81,269.035,225.151C268.964,226.153,269.035,231.024,269.035,231.024C269.035,231.024,288.213,238.83,303.232,238.83C318.251,238.83,342.305,232.656,342.305,232.656Z" fill="rgb(16,17,17)" stroke="none" stroke-width="1"/><path id="eIUlmfJyi6M72" d="M342.458,227.89C344.836,235.998,345.581,243.935,339.899,249.803C335.768,254.059,318.64,269.239,303.632,264.637C286.859,259.493,266.827,244.916,266.827,244.916C266.827,244.916,253.879,245.31,253.814,241.509C253.814,240.577,249.72,239.427,249.764,238.419C250.312,227.26,257.803,222.615,268.997,224.647C280.739,226.773,307.007,234.261,307.007,234.261L342.458,227.89Z" fill="rgb(23,24,25)" stroke="none" stroke-width="1"/><g id="eIUlmfJyi6M73" opacity="0.65"><rect id="eIUlmfJyi6M74" width="103.011" height="67.381" rx="0" ry="0" transform="matrix(1 0 0 1 246.784 217.378)" fill="none" stroke="none" stroke-width="1"/></g><path id="eIUlmfJyi6M75" d="M317.1,173.996C313.56,172.665,310.327,173.898,301.621,177.053C291.446,180.74,279.786,184.952,279.786,184.952L266.569,158.433C264.898,154.867,263.665,152.495,260.657,149.953C259.333,149.25,257.86,148.875,256.361,148.857C251.737,149.027,242.762,153.787,247.474,158.378C250.279,161.117,255.112,162.213,257.77,163.856C259.178,164.738,259.918,166.968,260.509,168.65C263.178,176.029,268.043,191.378,269.32,194.731C270.701,198.368,273.999,199.376,278.569,198.336C285.243,196.818,315.527,188.584,315.527,188.584L317.1,173.996Z" fill="rgb(255,168,167)" stroke="none" stroke-width="1"/><path id="eIUlmfJyi6M76" d="M317.1,173.279C317.1,173.279,315.851,171.942,309.856,173.509C303.862,175.075,290.174,180.63,290.174,180.63C290.174,180.63,284.207,187.565,292.016,195.887L314.426,190.031L317.1,181.326L317.1,173.279Z" fill="rgb(90,92,99)" stroke="none" stroke-width="1"/><g id="eIUlmfJyi6M77" opacity="0.31"><rect id="eIUlmfJyi6M78" width="57.533" height="55.3291" rx="0" ry="0" transform="matrix(1 0 0 1 274.18 159.309)" fill="none" stroke="none" stroke-width="1"/></g><path id="eIUlmfJyi6M79" d="M239.995,161.057C240.024,161.09,240.064,161.112,240.108,161.119C240.152,161.126,240.197,161.118,240.236,161.095L241.945,160.158C241.968,160.146,241.989,160.13,242.006,160.11C242.022,160.09,242.035,160.066,242.043,160.041C242.05,160.016,242.053,159.99,242.05,159.964C242.048,159.938,242.04,159.913,242.028,159.89C242.002,159.843,241.959,159.808,241.908,159.792C241.856,159.777,241.801,159.783,241.754,159.808L240.044,160.745C239.997,160.77,239.962,160.813,239.946,160.865C239.931,160.916,239.937,160.971,239.962,161.019L239.995,161.057Z" fill="rgb(18,19,22)" stroke="none" stroke-width="1"/><path id="eIUlmfJyi6M80" d="M245.967,160.235L241.584,160.821C241.445,160.834,241.307,160.804,241.186,160.735C241.065,160.666,240.969,160.562,240.909,160.437C240.849,160.312,240.83,160.171,240.852,160.034C240.875,159.897,240.939,159.77,241.036,159.671L244.181,156.521L245.967,160.235Z" fill="rgb(81,87,91)" stroke="none" stroke-width="1"/><path id="eIUlmfJyi6M81" d="M267.03,145.17C267.234,145.107,267.452,145.107,267.656,145.169C267.861,145.232,268.041,145.354,268.175,145.521C269.106,146.436,269.627,148.6,268.558,149.021L245.967,160.235C245.31,160.153,244.559,159.381,244.208,158.438C243.951,157.826,243.934,157.14,244.159,156.516L267.03,145.17Z" fill="rgb(42,44,48)" stroke="none" stroke-width="1"/><path id="eIUlmfJyi6M82" d="M269.687,145.17C269.79,145.118,269.902,145.087,270.017,145.078C270.132,145.069,270.248,145.083,270.358,145.119C270.467,145.155,270.569,145.212,270.656,145.287C270.744,145.362,270.816,145.454,270.868,145.557C270.92,145.659,270.952,145.772,270.96,145.887C270.969,146.002,270.955,146.117,270.919,146.227C270.884,146.336,270.826,146.438,270.751,146.525C270.676,146.613,270.585,146.685,270.482,146.737L268.668,147.635C268.595,147.664,268.516,147.672,268.439,147.659C268.362,147.647,268.29,147.614,268.23,147.564C268.06,147.436,267.922,147.271,267.827,147.081C267.732,146.891,267.682,146.681,267.682,146.469C267.679,146.392,267.696,146.316,267.732,146.247C267.767,146.179,267.82,146.121,267.885,146.08L269.687,145.17Z" fill="rgb(18,19,22)" stroke="none" stroke-width="1"/><path id="eIUlmfJyi6M83" d="M258.833,149.219C258.298,148.766,257.722,148.364,257.112,148.019C256.219,147.47,255.22,147.115,254.181,146.978C253.785,146.913,253.379,146.95,253.003,147.088C252.639,147.275,252.311,147.523,252.033,147.822C250.471,149.268,248.296,149.75,246.74,151.174C245.364,152.434,243.063,156.51,244,157.863C244.548,158.707,246.46,157.381,247.337,156.258C247.337,157.299,248.866,157.255,250.367,155.447C251.605,153.957,253.107,151.974,253.107,151.974L258.833,149.219Z" fill="rgb(255,168,167)" stroke="none" stroke-width="1"/><path id="eIUlmfJyi6M84" d="M253.183,150.205C252.979,150.291,252.802,150.43,252.671,150.609C252.54,150.787,252.459,150.998,252.438,151.218C252.367,151.701,252.406,152.194,252.553,152.659L253.068,151.974L253.183,150.205Z" fill="rgb(242,143,143)" stroke="none" stroke-width="1"/><path id="eIUlmfJyi6M85" d="M266.569,158.433C265.183,155.551,265.276,153.119,262.635,152.007C259.994,150.895,258.712,151.224,255.677,150.199C251.359,148.753,252.422,153.02,255.945,154.823C259.468,156.625,261.824,156.187,261.824,156.187C261.824,156.187,263.95,162.114,266.569,158.433Z" fill="rgb(255,168,167)" stroke="none" stroke-width="1"/><path id="eIUlmfJyi6M86" d="M304.996,279.642C308.832,279.45,311.878,276.613,321.056,272.789C338.009,265.727,350.721,260.08,355.576,251.205C360.43,242.33,363.85,216.693,362.639,205.611C362.518,204.355,362.238,203.12,361.806,201.935L363,201.759L359.91,199.13C356.743,196.544,351.587,198.851,347.707,200.965C336.606,206.991,327.933,212.869,321.067,234.053C315.911,249.983,312.508,264.522,305.385,272.29" fill="rgb(29,31,33)" stroke="none" stroke-width="1"/><path id="eIUlmfJyi6M87" d="M155.881,107.694L155.881,143.149C155.881,143.363,156.035,143.45,156.221,143.346L161.903,140.059C162.003,139.996,162.086,139.91,162.145,139.808C162.204,139.706,162.238,139.591,162.243,139.473L162.243,104.024C162.243,103.805,162.095,103.717,161.903,103.827L156.221,107.114C156.124,107.178,156.042,107.264,155.983,107.364C155.924,107.465,155.889,107.578,155.881,107.694Z" fill="rgb(18,19,22)" stroke="none" stroke-width="1"/><path id="eIUlmfJyi6M88" d="M156.676,108.527L158.55,107.431C158.692,107.355,158.802,107.431,158.802,107.579L158.802,109.771C158.798,109.859,158.773,109.944,158.73,110.021C158.686,110.097,158.624,110.161,158.55,110.209L156.671,111.304C156.534,111.387,156.418,111.304,156.418,111.162L156.418,108.971C156.422,108.881,156.447,108.794,156.492,108.717C156.537,108.64,156.6,108.574,156.676,108.527Z" fill="rgb(42,44,48)" stroke="none" stroke-width="1"/><path id="eIUlmfJyi6M89" d="M159.575,106.856L161.449,105.761C161.591,105.678,161.706,105.761,161.706,105.909L161.706,108.1C161.702,108.188,161.676,108.274,161.631,108.351C161.586,108.427,161.524,108.491,161.449,108.538L159.575,109.634C159.432,109.716,159.323,109.634,159.323,109.486L159.323,107.322C159.322,107.229,159.344,107.138,159.389,107.057C159.433,106.975,159.497,106.906,159.575,106.856Z" fill="rgb(42,44,48)" stroke="none" stroke-width="1"/><path id="eIUlmfJyi6M90" d="M156.676,111.814L158.55,110.718C158.692,110.642,158.802,110.718,158.802,110.866L158.802,113.058C158.798,113.145,158.773,113.231,158.73,113.307C158.686,113.384,158.624,113.448,158.55,113.496L156.671,114.591C156.534,114.674,156.418,114.591,156.418,114.449L156.418,112.258C156.422,112.168,156.447,112.081,156.492,112.004C156.537,111.926,156.6,111.861,156.676,111.814Z" fill="rgb(42,44,48)" stroke="none" stroke-width="1"/><path id="eIUlmfJyi6M91" d="M159.575,110.138L161.449,109.042C161.591,108.96,161.706,109.042,161.706,109.19L161.706,111.381C161.702,111.47,161.676,111.556,161.631,111.632C161.586,111.708,161.524,111.773,161.449,111.819L159.575,112.915C159.432,112.997,159.323,112.915,159.323,112.767L159.323,110.603C159.322,110.511,159.344,110.419,159.389,110.338C159.433,110.257,159.497,110.188,159.575,110.138Z" fill="rgb(42,44,48)" stroke="none" stroke-width="1"/><path id="eIUlmfJyi6M92" d="M156.676,115.101L158.55,114.005C158.692,113.923,158.802,114.005,158.802,114.153L158.802,116.317C158.798,116.405,158.773,116.491,158.73,116.567C158.686,116.643,158.624,116.708,158.55,116.755L156.671,117.851C156.534,117.933,156.418,117.851,156.418,117.703L156.418,115.512C156.427,115.428,156.455,115.347,156.499,115.276C156.544,115.205,156.604,115.145,156.676,115.101Z" fill="rgb(42,44,48)" stroke="none" stroke-width="1"/><path id="eIUlmfJyi6M93" d="M159.575,113.425L161.448,112.329C161.591,112.252,161.706,112.329,161.706,112.477L161.706,114.668C161.702,114.756,161.676,114.843,161.631,114.919C161.586,114.995,161.524,115.059,161.448,115.106L159.575,116.202C159.432,116.279,159.322,116.202,159.322,116.054L159.322,113.863C159.326,113.775,159.351,113.689,159.395,113.613C159.439,113.537,159.5,113.472,159.575,113.425Z" fill="rgb(42,44,48)" stroke="none" stroke-width="1"/><path id="eIUlmfJyi6M94" d="M156.676,118.388L158.55,117.292C158.692,117.21,158.802,117.292,158.802,117.44L158.802,119.604C158.798,119.692,158.773,119.778,158.73,119.854C158.686,119.93,158.624,119.995,158.55,120.042L156.671,121.138C156.534,121.22,156.418,121.138,156.418,120.99L156.418,118.799C156.427,118.715,156.455,118.634,156.499,118.563C156.544,118.492,156.604,118.432,156.676,118.388Z" fill="rgb(42,44,48)" stroke="none" stroke-width="1"/><path id="eIUlmfJyi6M95" d="M159.575,116.711L161.448,115.616C161.591,115.534,161.706,115.616,161.706,115.758L161.706,117.949C161.702,118.038,161.676,118.124,161.631,118.2C161.586,118.277,161.524,118.341,161.448,118.388L159.575,119.483C159.432,119.566,159.322,119.483,159.322,119.341L159.322,117.15C159.326,117.062,159.351,116.976,159.395,116.9C159.439,116.823,159.5,116.759,159.575,116.711Z" fill="rgb(42,44,48)" stroke="none" stroke-width="1"/><path id="eIUlmfJyi6M96" d="M156.676,121.675L158.55,120.579C158.692,120.497,158.802,120.579,158.802,120.727L158.802,122.891C158.798,122.979,158.773,123.064,158.73,123.141C158.686,123.217,158.624,123.282,158.55,123.329L156.671,124.425C156.534,124.507,156.418,124.425,156.418,124.277L156.418,122.085C156.427,122.002,156.455,121.921,156.499,121.85C156.544,121.779,156.604,121.719,156.676,121.675Z" fill="rgb(42,44,48)" stroke="none" stroke-width="1"/><path id="eIUlmfJyi6M97" d="M159.575,119.998L161.448,118.903C161.591,118.826,161.706,118.903,161.706,119.051L161.706,121.242C161.702,121.33,161.676,121.416,161.631,121.493C161.586,121.569,161.524,121.633,161.448,121.68L159.575,122.776C159.432,122.858,159.322,122.776,159.322,122.633L159.322,120.442C159.325,120.353,159.35,120.266,159.394,120.189C159.438,120.112,159.5,120.046,159.575,119.998Z" fill="rgb(42,44,48)" stroke="none" stroke-width="1"/><path id="eIUlmfJyi6M98" d="M156.676,124.956L158.55,123.86C158.692,123.784,158.802,123.86,158.802,124.008L158.802,126.2C158.798,126.287,158.773,126.373,158.73,126.449C158.686,126.526,158.624,126.59,158.55,126.638L156.671,127.733C156.534,127.816,156.418,127.733,156.418,127.591L156.418,125.4C156.422,125.31,156.447,125.223,156.492,125.146C156.537,125.069,156.6,125.003,156.676,124.956Z" fill="rgb(42,44,48)" stroke="none" stroke-width="1"/><path id="eIUlmfJyi6M99" d="M159.575,123.285L161.448,122.19C161.591,122.107,161.706,122.19,161.706,122.337L161.706,124.501C161.702,124.59,161.676,124.676,161.631,124.752C161.586,124.828,161.524,124.893,161.448,124.94L159.575,126.035C159.432,126.117,159.322,126.035,159.322,125.893L159.322,123.702C159.33,123.617,159.356,123.536,159.4,123.464C159.443,123.392,159.503,123.33,159.575,123.285Z" fill="rgb(42,44,48)" stroke="none" stroke-width="1"/><path id="eIUlmfJyi6M100" d="M156.676,128.243L158.55,127.147C158.692,127.065,158.802,127.147,158.802,127.29L158.802,129.481C158.798,129.569,158.773,129.655,158.73,129.731C158.686,129.807,158.624,129.872,158.55,129.919L156.671,131.015C156.534,131.097,156.418,131.015,156.418,130.872L156.418,128.681C156.423,128.593,156.448,128.507,156.493,128.43C156.538,128.354,156.601,128.29,156.676,128.243Z" fill="rgb(42,44,48)" stroke="none" stroke-width="1"/><path id="eIUlmfJyi6M101" d="M159.575,126.572L161.448,125.476C161.591,125.394,161.706,125.476,161.706,125.624L161.706,127.788C161.702,127.877,161.676,127.963,161.631,128.039C161.586,128.115,161.524,128.18,161.448,128.226L159.575,129.322C159.432,129.404,159.322,129.322,159.322,129.174L159.322,126.983C159.33,126.9,159.357,126.819,159.401,126.748C159.445,126.677,159.504,126.617,159.575,126.572Z" fill="rgb(42,44,48)" stroke="none" stroke-width="1"/><path id="eIUlmfJyi6M102" d="M156.676,131.53L158.55,130.434C158.692,130.357,158.802,130.434,158.802,130.582L158.802,132.773C158.798,132.861,158.773,132.947,158.73,133.023C158.686,133.1,158.624,133.164,158.55,133.212L156.671,134.307C156.534,134.389,156.418,134.307,156.418,134.165L156.418,131.973C156.422,131.884,156.447,131.797,156.492,131.72C156.537,131.642,156.6,131.577,156.676,131.53Z" fill="rgb(42,44,48)" stroke="none" stroke-width="1"/><path id="eIUlmfJyi6M103" d="M159.575,129.859L161.448,128.763C161.591,128.681,161.706,128.763,161.706,128.911L161.706,131.075C161.702,131.164,161.676,131.25,161.631,131.326C161.586,131.402,161.524,131.467,161.448,131.513L159.575,132.609C159.432,132.691,159.322,132.609,159.322,132.461L159.322,130.27C159.33,130.187,159.357,130.106,159.401,130.035C159.445,129.964,159.504,129.904,159.575,129.859Z" fill="rgb(42,44,48)" stroke="none" stroke-width="1"/><path id="eIUlmfJyi6M104" d="M156.797,135.649L159.596,134.006C159.805,133.885,159.975,134.006,159.975,134.225L159.975,137.501C159.969,137.633,159.932,137.761,159.866,137.876C159.8,137.99,159.708,138.087,159.596,138.158L156.797,139.802C156.588,139.922,156.418,139.802,156.418,139.583L156.418,136.351C156.419,136.212,156.454,136.075,156.52,135.953C156.585,135.83,156.681,135.726,156.797,135.649Z" fill="rgb(42,44,48)" stroke="none" stroke-width="1"/><path id="eIUlmfJyi6M105" d="M161.169,136.203L161.169,138.849C161.156,138.908,161.126,138.961,161.081,139.002L158.786,140.328L158.786,137.676C158.798,137.619,158.829,137.567,158.873,137.528L161.169,136.203ZM161.547,135.348C161.487,135.352,161.429,135.371,161.377,135.403L158.577,137.046C158.466,137.117,158.374,137.214,158.308,137.329C158.242,137.443,158.205,137.572,158.199,137.704L158.199,140.936C158.199,141.106,158.281,141.204,158.407,141.204C158.468,141.203,158.527,141.184,158.577,141.149L161.377,139.506C161.488,139.434,161.58,139.337,161.645,139.223C161.711,139.108,161.749,138.98,161.755,138.849L161.755,135.616C161.755,135.447,161.668,135.348,161.547,135.348Z" fill="rgb(42,44,48)" stroke="none" stroke-width="1"/><path id="eIUlmfJyi6M106" d="M167.12,106.561L211.431,80.9832C212.368,80.4353,213.124,80.8791,213.124,81.9637L213.124,114.783C213.093,115.371,212.924,115.943,212.63,116.452C212.335,116.961,211.925,117.394,211.431,117.714L167.12,143.275C166.183,143.823,165.426,143.379,165.426,142.3L165.426,109.497C165.456,108.908,165.625,108.335,165.92,107.825C166.214,107.315,166.625,106.881,167.12,106.561Z" fill="rgb(42,44,48)" stroke="none" stroke-width="1"/><path id="eIUlmfJyi6M107" d="M232.209,56.3863C232.209,55.7454,231.754,55.4879,231.189,55.8111L153.717,100.529C153.422,100.722,153.176,100.982,153,101.287C152.824,101.593,152.723,101.935,152.703,102.288L152.703,106.621L232.209,60.7305L232.209,56.3863Z" fill="rgb(18,19,22)" stroke="none" stroke-width="1"/><path id="eIUlmfJyi6M108" d="M165.969,161.166C165.508,161.467,165.125,161.871,164.849,162.347C164.573,162.823,164.412,163.357,164.38,163.906C164.38,164.919,165.092,165.33,165.969,164.82C166.43,164.521,166.815,164.117,167.091,163.641C167.367,163.165,167.527,162.631,167.558,162.081C167.563,161.057,166.851,160.657,165.969,161.166Z" fill="rgb(62,67,71)" stroke="none" stroke-width="1"/><g id="eIUlmfJyi6M109_to" transform="translate(179.610001,117.445079)"><g id="eIUlmfJyi6M109" transform="translate(-179.61,-117.445079)"><path id="eIUlmfJyi6M110" d="M187.782,98.7048L171.437,108.144C171.01,108.423,170.655,108.798,170.4,109.24C170.145,109.681,169.997,110.176,169.969,110.686L169.969,126.375C169.969,127.312,170.626,127.69,171.437,127.224L187.782,117.78C188.208,117.498,188.562,117.121,188.817,116.679C189.072,116.237,189.22,115.742,189.251,115.232L189.251,99.554C189.251,98.6062,188.593,98.2392,187.782,98.7048Z" fill="rgb(62,67,71)" stroke="none" stroke-width="1"/><path id="eIUlmfJyi6M111" d="M174.747,109.426C175.843,108.779,176.769,109.305,176.769,110.592C176.732,111.295,176.528,111.979,176.176,112.589C175.824,113.198,175.332,113.715,174.741,114.098C173.645,114.745,172.719,114.219,172.719,112.932C172.758,112.229,172.962,111.545,173.314,110.936C173.666,110.327,174.157,109.809,174.747,109.426Z" fill="rgb(29,31,33)" stroke="none" stroke-width="1"/><path id="eIUlmfJyi6M112" d="M178.232,109.782C178.251,109.536,178.328,109.298,178.455,109.087C178.583,108.876,178.758,108.697,178.966,108.565L185.749,104.632C186.155,104.397,186.484,104.566,186.484,105.005C186.464,105.25,186.387,105.488,186.26,105.699C186.133,105.91,185.958,106.089,185.749,106.221L178.955,110.143C178.56,110.39,178.232,110.225,178.232,109.782Z" fill="rgb(29,31,33)" stroke="none" stroke-width="1"/><path id="eIUlmfJyi6M113" d="M173.454,116.514L185.76,109.393C186.166,109.157,186.495,109.349,186.495,109.814L186.495,114.493C186.479,114.747,186.405,114.994,186.277,115.215C186.15,115.435,185.973,115.623,185.76,115.764L173.459,122.885C173.054,123.121,172.725,122.929,172.725,122.463L172.725,117.78C172.741,117.527,172.815,117.281,172.941,117.062C173.067,116.842,173.243,116.655,173.454,116.514Z" fill="rgb(29,31,33)" stroke="none" stroke-width="1"/><path id="eIUlmfJyi6M114" d="M172.1,131.743C173.152,131.135,174.007,131.628,174.007,132.839C173.967,133.498,173.774,134.138,173.443,134.708C173.112,135.279,172.652,135.764,172.1,136.126C171.048,136.734,170.193,136.241,170.193,135.03C170.23,134.371,170.422,133.73,170.753,133.159C171.085,132.588,171.546,132.103,172.1,131.743Z" fill="rgb(62,67,71)" stroke="none" stroke-width="1"/><path id="eIUlmfJyi6M115" d="M176.928,128.955L188.237,122.431C188.785,122.107,189.251,122.338,189.251,122.946C189.224,123.285,189.119,123.614,188.943,123.906C188.767,124.198,188.525,124.445,188.237,124.627L176.928,131.157C176.38,131.481,175.914,131.25,175.914,130.642C175.94,130.302,176.045,129.972,176.221,129.679C176.397,129.386,176.639,129.138,176.928,128.955Z" fill="rgb(62,67,71)" stroke="none" stroke-width="1"/><path id="eIUlmfJyi6M116" d="M175.887,133.392C175.907,133.222,175.967,133.059,176.063,132.916C176.158,132.774,176.285,132.655,176.434,132.571L183.01,128.736C183.289,128.572,183.519,128.687,183.519,128.988C183.506,129.159,183.453,129.324,183.365,129.47C183.276,129.617,183.155,129.741,183.01,129.832L176.434,133.666C176.139,133.814,175.887,133.699,175.887,133.392Z" fill="rgb(62,67,71)" stroke="none" stroke-width="1"/><path id="eIUlmfJyi6M117" d="M175.887,133.392C175.907,133.222,175.967,133.059,176.063,132.916C176.158,132.774,176.285,132.655,176.434,132.571L183.01,128.736C183.289,128.572,183.519,128.687,183.519,128.988C183.506,129.159,183.453,129.324,183.365,129.47C183.276,129.617,183.155,129.741,183.01,129.832L176.434,133.666C176.139,133.814,175.887,133.699,175.887,133.392Z" opacity="0.3" fill="rgb(62,67,71)" stroke="none" stroke-width="1"/></g></g><path id="eIUlmfJyi6M118" d="M344.798,181.649C343.543,177.535,340.497,173.947,335.538,173.509C334.327,173.7,332.25,173.898,331.105,174.1C329.078,175.092,323.752,175.563,317.1,173.996C314.863,174.556,312.795,175.648,311.073,177.179C307.237,180.466,305.007,185.457,302.854,200.91C302.854,200.91,299.977,225.195,299.791,232.234C304.432,245.606,326.607,245.267,333.105,242.714C346.694,237.384,347.077,229.019,347.077,229.019C347.077,229.019,346.776,208.432,346.601,197.125C346.469,187.533,345.658,184.47,344.798,181.649Z" fill="rgb(90,92,99)" stroke="none" stroke-width="1"/><g id="eIUlmfJyi6M119" opacity="0.31"><rect id="eIUlmfJyi6M120" width="72.8751" height="106.823" rx="0" ry="0" transform="matrix(1 0 0 1 294.454 157.118)" fill="none" stroke="none" stroke-width="1"/></g><path id="eIUlmfJyi6M121" d="M331.122,154.28C330.612,153.809,330.228,152.401,329.894,150.714C324.623,153.19,316.848,154.374,312.908,154.374C306.645,154.374,301.571,149.087,301.571,142.568C301.568,140.441,302.124,138.349,303.182,136.504C302.104,135.647,301.26,134.531,300.728,133.261C300.059,131.563,300.234,129.459,301.484,128.128C302.733,126.797,305.128,126.605,306.349,127.953C306.241,127.247,306.256,126.528,306.393,125.827C306.466,125.477,306.629,125.151,306.865,124.882C307.101,124.614,307.403,124.411,307.741,124.293C308.459,124.101,309.199,124.447,309.862,124.781C311.862,125.8,313.977,127.224,316.125,127.832C318.191,128.326,320.284,128.703,322.393,128.961C327.68,129.826,330.776,130.056,332.634,132.187C333.492,133.127,334.042,134.306,334.212,135.567C334.44,135.244,334.738,134.977,335.083,134.784C335.68,134.458,336.381,134.382,337.034,134.573C337.686,134.764,338.236,135.206,338.562,135.803C338.601,135.874,338.639,135.945,338.672,136.016L334.837,138.164C335.769,138.562,336.541,139.263,337.028,140.152C337.691,141.188,338.124,142.848,338.124,144.929C338.078,147.558,337.556,150.156,336.584,152.599C336.584,152.599,335.286,162.7,334.453,164.344C333.62,165.987,331.165,166.601,331.165,166.601L331.122,154.28Z" fill="rgb(90,237,125)" stroke="none" stroke-width="1"/><path id="eIUlmfJyi6M122" d="M331.5,153.075C332.283,153.563,332.705,151.881,333.691,150.824C334.678,149.766,337.472,148.413,339.445,151.876C341.362,155.239,337.905,159.589,336.157,160.23C332.831,161.462,331.269,159.43,331.269,159.43L331.127,174.1C326.776,177.902,313.801,177.776,317.007,175.196L317.007,170.189C317.007,170.189,313.122,170.802,311.231,170.501C308.081,169.992,306.097,167.406,305.144,163.856C303.61,158.153,303.023,153.546,304.328,142.333C305.752,130.04,319.483,129.914,326.902,134.773C334.321,139.632,331.5,153.075,331.5,153.075Z" fill="rgb(255,168,167)" stroke="none" stroke-width="1"/><path id="eIUlmfJyi6M123" d="M338.699,136.016C338.428,135.392,337.921,134.9,337.289,134.649C336.656,134.397,335.95,134.407,335.324,134.674L335.111,134.784C334.767,134.976,334.469,135.242,334.239,135.562C334.069,134.303,333.518,133.125,332.661,132.187C330.804,130.062,327.73,129.826,322.42,128.961C320.313,128.703,318.222,128.326,316.157,127.832C314.004,127.224,311.889,125.8,309.889,124.781C309.226,124.447,308.486,124.101,307.769,124.293C307.431,124.411,307.129,124.614,306.892,124.882C306.656,125.151,306.494,125.477,306.421,125.827C306.283,126.529,306.268,127.251,306.377,127.958C305.155,126.605,302.76,126.802,301.511,128.128C300.262,129.454,300.087,131.563,300.75,133.261C301.497,134.939,302.735,136.353,304.3,137.315C310.941,141.801,318.782,140.552,326.218,139.676C326.569,139.601,326.935,139.624,327.275,139.741C328.442,140.289,328.689,143.888,328.919,144.935C329.604,148.457,330.179,154.423,331.5,154.45C331.894,154.45,332.7,151.75,333.691,150.824C334.864,149.728,334.239,140.963,334.048,138.635L338.699,136.016Z" fill="rgb(90,237,125)" stroke="none" stroke-width="1"/><rect id="eIUlmfJyi6M124" width="52.6016" height="48.2075" rx="0" ry="0" transform="matrix(1 0 0 1 297.193 143.971)" fill="none" stroke="none" stroke-width="1"/><path id="eIUlmfJyi6M125" d="M319.549,150.829C319.572,151.103,319.673,151.364,319.842,151.581C320.01,151.798,320.238,151.961,320.498,152.051C320.758,152.14,321.038,152.152,321.304,152.084C321.571,152.017,321.812,151.874,321.998,151.672C322.184,151.47,322.307,151.218,322.352,150.947C322.398,150.676,322.363,150.398,322.253,150.146C322.142,149.895,321.961,149.681,321.731,149.531C321.501,149.381,321.232,149.301,320.957,149.301C320.569,149.315,320.202,149.483,319.937,149.767C319.672,150.052,319.53,150.43,319.544,150.818L319.549,150.829Z" fill="rgb(18,19,22)" stroke="none" stroke-width="1"/><path id="eIUlmfJyi6M126" d="M319.818,160.827L315.319,162.585C315.49,163.182,315.891,163.686,316.433,163.987C316.976,164.288,317.616,164.361,318.212,164.19L318.377,164.136C318.99,163.868,319.48,163.378,319.747,162.764C320.014,162.15,320.04,161.458,319.818,160.827Z" fill="rgb(242,143,143)" stroke="none" stroke-width="1"/><path id="eIUlmfJyi6M127" d="M307.04,150.829C307.062,151.103,307.164,151.364,307.332,151.581C307.501,151.798,307.729,151.961,307.989,152.051C308.249,152.14,308.529,152.152,308.795,152.084C309.061,152.017,309.302,151.874,309.489,151.672C309.675,151.47,309.798,151.218,309.843,150.947C309.888,150.676,309.854,150.398,309.743,150.146C309.633,149.895,309.452,149.681,309.222,149.531C308.992,149.381,308.723,149.301,308.448,149.301C308.256,149.307,308.066,149.352,307.891,149.431C307.716,149.511,307.559,149.625,307.428,149.766C307.297,149.907,307.195,150.073,307.128,150.253C307.062,150.434,307.032,150.626,307.04,150.818L307.04,150.829Z" fill="rgb(18,19,22)" stroke="none" stroke-width="1"/><path id="eIUlmfJyi6M128" d="M314.514,149.712L315.346,158.57L310.196,157.984L314.514,149.712Z" fill="rgb(242,143,143)" stroke="none" stroke-width="1"/><path id="eIUlmfJyi6M129" d="M361.795,201.929L362.989,201.759L359.899,199.13C356.732,196.544,351.576,198.851,347.696,200.965C336.601,206.991,327.922,212.864,321.061,234.053C315.9,249.983,312.497,264.517,305.374,272.29L304.651,279.845C308.486,279.653,311.889,276.613,321.089,272.789C338.036,265.728,350.748,260.08,355.609,251.205C360.469,242.33,363.882,216.693,362.672,205.611C362.536,204.351,362.242,203.114,361.795,201.929Z" fill="rgb(29,31,33)" stroke="none" stroke-width="1"/><path id="eIUlmfJyi6M130" d="M350.907,203.699C339.812,209.725,331.132,215.603,324.272,236.787C317.412,257.97,313.659,276.684,300.163,280.316C300.163,280.316,306.273,282.743,325.007,274.838C330.968,272.318,338.201,267.716,342.951,265.054C352.266,259.833,357.904,255.549,358.798,253.95C363.729,245.119,367.071,219.437,365.86,208.355C364.649,197.273,356.469,200.675,350.907,203.699Z" fill="rgb(62,67,71)" stroke="none" stroke-width="1"/><g id="eIUlmfJyi6M131" opacity="0.26"><rect id="eIUlmfJyi6M132" width="65.2041" height="97.5107" rx="0" ry="0" transform="matrix(1 0 0 1 309.796 182.865)" fill="none" stroke="none" stroke-width="1"/></g><path id="eIUlmfJyi6M133" d="M356.732,207.873C356.184,205.572,346.392,183.402,346.392,183.402L335.247,190.639L344.529,212.82L340.497,235.642C339.543,237.406,336.48,239.076,335.017,241.246C333.981,242.718,333.052,244.263,332.239,245.869C331.741,246.965,331.33,249.808,333.79,248.126C335.834,246.729,337.242,244.598,337.79,244.379C338.195,244.22,337.998,246.094,337.982,246.225C337.642,249.047,336.036,251.912,334.634,254.333C333.96,255.494,332.568,257.346,334.053,258.414C334.45,258.67,334.882,258.87,335.335,259.006C336.9,259.582,338.603,259.673,340.221,259.266C341.839,258.86,343.297,257.975,344.403,256.727C347.307,253.352,348.343,249.058,348.721,244.708C349.225,239.432,350.343,234.233,352.053,229.216C354.655,221.667,357.209,209.883,356.732,207.873Z" fill="rgb(255,168,167)" stroke="none" stroke-width="1"/><path id="eIUlmfJyi6M134" d="M335.538,173.509C339.373,173.262,341.828,174.029,344.661,178.691C347.494,183.353,354.907,199.508,354.907,199.508C354.907,199.508,352.77,205.38,340.502,207.857L333.143,192.211C333.143,192.211,328.36,178.861,335.538,173.509Z" fill="rgb(90,92,99)" stroke="none" stroke-width="1"/><g id="eIUlmfJyi6M135_to" transform="translate(243.112007,81.508854)"><g id="eIUlmfJyi6M135" transform="translate(-243.112007,-81.508854)"><path id="eIUlmfJyi6M136" d="M263.523,46.2792L220.017,71.4019C219.721,71.5942,219.475,71.8538,219.299,72.1594C219.123,72.4651,219.022,72.8081,219.003,73.1603L219.003,114.602C219.021,114.955,219.122,115.298,219.298,115.604C219.474,115.91,219.721,116.169,220.017,116.361L220.664,116.739C220.98,116.898,221.329,116.981,221.683,116.981C222.037,116.981,222.386,116.898,222.702,116.739L266.208,91.6162C266.503,91.4232,266.749,91.1634,266.925,90.8579C267.101,90.5524,267.202,90.2098,267.221,89.8577L267.221,48.4156C267.203,48.0635,267.101,47.7206,266.925,47.4151C266.749,47.1095,266.503,46.8498,266.208,46.6572L265.561,46.2792C265.245,46.1198,264.896,46.0367,264.542,46.0367C264.188,46.0367,263.839,46.1198,263.523,46.2792Z" fill="rgb(23,24,25)" stroke="none" stroke-width="1"/><path id="eIUlmfJyi6M137" d="M267.183,48.1144C267.057,47.6871,266.668,47.5665,266.202,47.8295L222.702,72.9522C222.401,73.1371,222.153,73.3978,221.984,73.7082L219.305,72.1579C219.472,71.8477,219.717,71.5869,220.017,71.4019L263.556,46.2792C263.872,46.1223,264.22,46.0407,264.572,46.0407C264.925,46.0407,265.273,46.1223,265.589,46.2792L266.23,46.6572C266.478,46.8237,266.691,47.0385,266.855,47.2889C267.018,47.5392,267.13,47.8199,267.183,48.1144Z" fill="rgb(62,67,71)" stroke="none" stroke-width="1"/><path id="eIUlmfJyi6M138" d="M266.202,47.8295L222.696,72.9467C222.401,73.1409,222.156,73.4016,221.98,73.708C221.803,74.0144,221.702,74.3578,221.683,74.7106L221.683,116.136C221.683,116.783,222.138,117.046,222.696,116.722L266.202,91.6052C266.5,91.4126,266.747,91.1523,266.924,90.8457C267.101,90.5391,267.203,90.1948,267.221,89.8412L267.221,48.4156C267.221,47.7692,266.767,47.5063,266.202,47.8295Z" fill="rgb(42,45,48)" stroke="none" stroke-width="1"/><path id="eIUlmfJyi6M139" d="M224.362,75.0832L264.542,51.8833L264.542,89.014L224.362,112.214L224.362,75.0832Z" opacity="0.75" fill="rgb(42,45,48)" stroke="none" stroke-width="1"/><path id="eIUlmfJyi6M140" d="M224.362,99.8333L235.787,80.1121L251.43,91.7805L247.622,87.5623L255.918,76.5732L264.542,82.0513L264.542,89.014L224.362,112.214L224.362,99.8333Z" fill="rgb(18,19,22)" stroke="none" stroke-width="1"/><path id="eIUlmfJyi6M141" d="M252.471,65.4362C251.69,65.9448,251.04,66.6307,250.575,67.438C250.109,68.2453,249.841,69.1511,249.792,70.0816C249.792,71.7908,250.992,72.4811,252.471,71.6265C253.251,71.118,253.9,70.4329,254.366,69.6268C254.831,68.8206,255.1,67.916,255.151,66.9865C255.151,65.2773,253.951,64.5816,252.471,65.4362Z" fill="rgb(18,19,22)" stroke="none" stroke-width="1"/></g></g><path id="eIUlmfJyi6M142" d="M90.535,150.435L102.431,143.565C102.748,143.384,103.011,143.532,103.011,143.899L103.011,177.727C102.999,177.928,102.94,178.123,102.84,178.297C102.739,178.471,102.599,178.619,102.431,178.729L90.535,185.593C90.2172,185.78,89.9871,185.626,89.9871,185.259L89.9871,151.437C89.9938,151.239,90.0469,151.045,90.142,150.871C90.2371,150.697,90.3717,150.548,90.535,150.435Z" fill="rgb(42,44,48)" stroke="none" stroke-width="1"/><path id="eIUlmfJyi6M143" d="M92.7103,151.689L100.272,147.362C100.59,147.175,100.853,147.307,100.853,147.657C100.837,147.851,100.777,148.039,100.676,148.205C100.575,148.372,100.437,148.513,100.272,148.616L92.7267,152.971C92.4089,153.157,92.1788,153.026,92.1788,152.675C92.1827,152.481,92.233,152.29,92.3254,152.118C92.4179,151.947,92.5498,151.8,92.7103,151.689Z" fill="rgb(62,67,71)" stroke="none" stroke-width="1"/><path id="eIUlmfJyi6M144" d="M92.1349,154.938L92.1349,155.387C92.1349,155.606,92.2884,155.699,92.4801,155.59L92.8747,155.365C92.975,155.298,93.0583,155.209,93.1183,155.104C93.1782,155,93.2129,154.883,93.2199,154.763L93.2199,154.308C93.2199,154.083,93.0664,153.996,92.8747,154.105L92.4801,154.335C92.378,154.4,92.2932,154.489,92.233,154.594C92.1729,154.699,92.1392,154.817,92.1349,154.938Z" fill="rgb(62,67,71)" stroke="none" stroke-width="1"/><path id="eIUlmfJyi6M145" d="M94.3103,153.935C94.3103,154.28,94.5678,154.412,94.8582,154.226L100.228,151.131C100.393,151.026,100.531,150.884,100.631,150.717C100.732,150.549,100.793,150.361,100.809,150.166C100.809,149.821,100.546,149.69,100.228,149.871L94.8582,152.971C94.6982,153.078,94.5653,153.221,94.4702,153.388C94.3751,153.556,94.3203,153.743,94.3103,153.935Z" fill="rgb(62,67,71)" stroke="none" stroke-width="1"/><path id="eIUlmfJyi6M146" d="M92.1349,157.452L92.1349,157.902C92.1349,158.126,92.2884,158.214,92.4801,158.104L92.8747,157.88C92.975,157.813,93.0583,157.724,93.1183,157.619C93.1782,157.514,93.2129,157.397,93.2199,157.277L93.2199,156.822C93.2199,156.603,93.0664,156.51,92.8747,156.625L92.4801,156.85C92.3789,156.916,92.2949,157.005,92.2348,157.109C92.1748,157.214,92.1406,157.332,92.1349,157.452Z" fill="rgb(62,67,71)" stroke="none" stroke-width="1"/><path id="eIUlmfJyi6M147" d="M94.3103,156.422C94.3103,156.768,94.5678,156.899,94.8582,156.713L100.228,153.618C100.393,153.513,100.531,153.371,100.631,153.204C100.732,153.036,100.793,152.848,100.809,152.653C100.809,152.308,100.546,152.177,100.228,152.363L94.8582,155.458C94.6982,155.565,94.5653,155.708,94.4702,155.876C94.3751,156.043,94.3203,156.23,94.3103,156.422Z" fill="rgb(62,67,71)" stroke="none" stroke-width="1"/><path id="eIUlmfJyi6M148" d="M92.1349,159.961L92.1349,160.41C92.1349,160.635,92.2884,160.723,92.4801,160.613L92.8747,160.389C92.975,160.322,93.0583,160.232,93.1183,160.128C93.1782,160.023,93.2129,159.906,93.2199,159.786L93.2199,159.331C93.2199,159.112,93.0664,159.019,92.8747,159.129L92.4801,159.359C92.378,159.424,92.2932,159.512,92.233,159.617C92.1729,159.722,92.1392,159.84,92.1349,159.961Z" fill="rgb(62,67,71)" stroke="none" stroke-width="1"/><path id="eIUlmfJyi6M149" d="M94.3103,158.931C94.3103,159.277,94.5678,159.408,94.8582,159.222L100.272,156.127C100.436,156.022,100.575,155.88,100.675,155.713C100.776,155.545,100.837,155.357,100.853,155.162C100.853,154.817,100.59,154.686,100.272,154.872L94.902,157.967C94.7345,158.07,94.5935,158.211,94.4907,158.379C94.3879,158.546,94.3261,158.735,94.3103,158.931Z" fill="rgb(62,67,71)" stroke="none" stroke-width="1"/><path id="eIUlmfJyi6M150" d="M92.1349,162.47L92.1349,162.919C92.1349,163.139,92.2884,163.232,92.4801,163.122L92.8747,162.898C92.975,162.831,93.0583,162.741,93.1183,162.637C93.1782,162.532,93.2129,162.415,93.2199,162.295L93.2199,161.84C93.2199,161.621,93.0664,161.528,92.8747,161.638L92.4801,161.868C92.378,161.933,92.2932,162.021,92.233,162.126C92.1729,162.231,92.1392,162.349,92.1349,162.47Z" fill="rgb(62,67,71)" stroke="none" stroke-width="1"/><path id="eIUlmfJyi6M151" d="M94.3103,161.44C94.3103,161.786,94.5678,161.917,94.8582,161.731L100.228,158.636C100.393,158.531,100.531,158.389,100.631,158.222C100.732,158.054,100.793,157.866,100.809,157.671C100.809,157.326,100.546,157.195,100.228,157.376L94.8582,160.476C94.6982,160.583,94.5653,160.726,94.4702,160.894C94.3751,161.061,94.3203,161.248,94.3103,161.44Z" fill="rgb(62,67,71)" stroke="none" stroke-width="1"/><path id="eIUlmfJyi6M152" d="M133.482,164.344L133.482,164.963C133.482,165.335,133.745,165.511,134.063,165.297L149.219,156.477C149.388,156.367,149.53,156.218,149.631,156.043C149.732,155.868,149.789,155.671,149.799,155.469L149.799,154.921C149.799,154.549,149.542,154.401,149.219,154.587L134.063,163.352C133.895,163.461,133.756,163.607,133.655,163.779C133.554,163.951,133.495,164.145,133.482,164.344Z" fill="rgb(42,44,48)" stroke="none" stroke-width="1"/><path id="eIUlmfJyi6M153" d="M115.855,174.522L115.855,175.147C115.855,175.514,116.113,175.662,116.43,175.475L131.592,166.656C131.759,166.545,131.898,166.397,131.998,166.222C132.098,166.048,132.156,165.853,132.167,165.653L132.167,165.105C132.167,164.738,131.909,164.585,131.592,164.771L116.43,173.536C116.265,173.645,116.127,173.791,116.027,173.962C115.928,174.133,115.869,174.325,115.855,174.522Z" opacity="0.6" fill="rgb(42,44,48)" stroke="none" stroke-width="1"/><path id="eIUlmfJyi6M154" d="M105.751,152.944L149.273,127.64C149.597,127.46,149.854,127.608,149.854,127.975L149.854,150.495C149.844,150.697,149.786,150.894,149.685,151.069C149.584,151.244,149.443,151.393,149.273,151.503L105.751,176.801C105.428,176.987,105.17,176.839,105.17,176.467L105.17,153.935C105.183,153.736,105.242,153.543,105.343,153.371C105.444,153.198,105.583,153.052,105.751,152.944Z" fill="rgb(42,44,48)" stroke="none" stroke-width="1"/><g id="eIUlmfJyi6M155_to" transform="translate(111.471497,155.76226)"><path id="eIUlmfJyi6M155" d="M111.472,153.782C112.419,153.234,113.187,153.678,113.187,154.773C113.155,155.368,112.983,155.947,112.685,156.463C112.387,156.979,111.971,157.418,111.472,157.743C110.524,158.29,109.756,157.847,109.756,156.751C109.789,156.156,109.961,155.577,110.259,155.062C110.557,154.546,110.972,154.107,111.472,153.782Z" transform="translate(-111.471497,-155.76226)" fill="rgb(18,19,22)" stroke="none" stroke-width="1"/></g><path id="eIUlmfJyi6M156" d="M90.535,139.61L149.202,105.728C149.525,105.542,149.783,105.689,149.783,106.062L149.783,112.302C149.773,112.503,149.715,112.699,149.614,112.873C149.513,113.047,149.372,113.195,149.202,113.304L90.535,147.142C90.2172,147.323,89.9871,147.175,89.9871,146.808L89.9871,140.613C89.9938,140.414,90.0469,140.22,90.142,140.046C90.2371,139.872,90.3717,139.723,90.535,139.61Z" fill="rgb(29,31,33)" stroke="none" stroke-width="1"/><path id="eIUlmfJyi6M157" d="M119.285,125.997L119.285,127.558C119.285,127.876,119.51,128.007,119.784,127.849L144.441,113.605L144.441,110.866L119.784,125.109C119.635,125.206,119.512,125.337,119.425,125.492C119.338,125.646,119.29,125.82,119.285,125.997Z" fill="rgb(62,67,71)" stroke="none" stroke-width="1"/><path id="eIUlmfJyi6M158" d="M147.104,109.327C147.383,109.168,147.608,109.294,147.608,109.617L147.608,111.206C147.599,111.381,147.549,111.551,147.462,111.703C147.374,111.854,147.251,111.983,147.104,112.077L144.463,113.605L144.463,110.866L147.104,109.327Z" fill="rgb(62,67,71)" stroke="none" stroke-width="1"/><path id="eIUlmfJyi6M159" d="M146.912,111.469L146.616,111.376C146.644,111.252,146.659,111.125,146.66,110.998C146.674,110.879,146.656,110.758,146.609,110.647C146.562,110.537,146.487,110.44,146.391,110.368C146.327,110.329,146.253,110.308,146.178,110.308C146.102,110.308,146.028,110.329,145.964,110.368C145.775,110.511,145.622,110.696,145.52,110.91C145.417,111.123,145.366,111.358,145.372,111.595C145.359,111.713,145.377,111.833,145.424,111.943C145.471,112.052,145.546,112.147,145.641,112.219C145.697,112.253,145.761,112.272,145.827,112.274C145.914,112.27,145.998,112.246,146.073,112.203C146.297,112.046,146.464,111.821,146.55,111.562L146.846,111.655L146.879,111.655C146.904,111.654,146.929,111.643,146.947,111.626C146.966,111.609,146.978,111.585,146.981,111.56C146.985,111.534,146.979,111.509,146.965,111.487C146.951,111.466,146.931,111.449,146.906,111.442L146.912,111.469ZM145.964,112.017C145.932,112.037,145.895,112.047,145.857,112.047C145.819,112.047,145.782,112.037,145.75,112.017C145.69,111.962,145.645,111.893,145.617,111.817C145.589,111.741,145.581,111.659,145.591,111.578C145.588,111.381,145.629,111.185,145.713,111.005C145.796,110.826,145.92,110.668,146.073,110.543C146.112,110.515,146.158,110.5,146.205,110.499C146.23,110.491,146.257,110.491,146.282,110.499C146.34,110.556,146.385,110.624,146.413,110.7C146.441,110.776,146.453,110.857,146.446,110.938C146.448,111.135,146.406,111.331,146.322,111.51C146.239,111.689,146.116,111.847,145.964,111.973L145.964,112.017Z" fill="rgb(18,19,22)" stroke="none" stroke-width="1"/><path id="eIUlmfJyi6M160" d="M105.203,142.645L105.203,150.101C105.203,150.473,105.461,150.621,105.784,150.435L149.219,125.361C149.388,125.252,149.529,125.104,149.63,124.93C149.731,124.756,149.789,124.56,149.799,124.359L149.799,116.903C149.799,116.531,149.542,116.355,149.219,116.569L105.751,141.642C105.588,141.755,105.454,141.905,105.359,142.079C105.264,142.253,105.21,142.447,105.203,142.645Z" opacity="0.3" fill="rgb(18,19,22)" stroke="none" stroke-width="1"/><path id="eIUlmfJyi6M161" d="M183.897,232.426L188.007,232.53C188.023,232.53,188.039,232.533,188.054,232.54C188.069,232.546,188.083,232.555,188.094,232.567C188.105,232.579,188.114,232.593,188.12,232.608C188.126,232.623,188.128,232.64,188.127,232.656C188.128,232.675,188.124,232.694,188.115,232.712C188.107,232.729,188.094,232.744,188.078,232.755L184.73,235.192L183.897,232.426Z" fill="rgb(62,67,71)" stroke="none" stroke-width="1"/><path id="eIUlmfJyi6M162" d="M169.558,239.942L170.369,239.684C170.604,239.619,170.599,239.071,170.473,238.474C170.303,237.685,169.81,236.83,169.492,236.934L168.895,237.121L168.681,237.192C168.999,237.104,169.492,237.942,169.662,238.731C169.783,239.279,169.794,239.827,169.58,239.925L169.558,239.942Z" fill="rgb(62,67,71)" stroke="none" stroke-width="1"/><path id="eIUlmfJyi6M163" d="M168.172,240.364L168.972,240.112C169.52,239.969,168.698,237.307,168.144,237.373L168.117,237.373L167.306,237.63C167.859,237.471,168.725,240.216,168.172,240.364Z" fill="rgb(62,67,71)" stroke="none" stroke-width="1"/></svg>