<svg width="576" height="257" viewBox="0 0 576 257" fill="none" xmlns="http://www.w3.org/2000/svg">
<g clip-path="url(#clip0)">
<path d="M397.002 109.229C399.776 109.229 402.025 106.98 402.025 104.206C402.025 101.432 399.776 99.183 397.002 99.183C394.228 99.183 391.979 101.432 391.979 104.206C391.979 106.98 394.228 109.229 397.002 109.229Z" fill="#E3E5E8"/>
<path d="M214.275 241.91C217.666 241.91 220.415 239.161 220.415 235.77C220.415 232.379 217.666 229.63 214.275 229.63C210.884 229.63 208.135 232.379 208.135 235.77C208.135 239.161 210.884 241.91 214.275 241.91Z" fill="#E3E5E8"/>
<path d="M358.995 56.391C360.845 56.391 362.344 54.8916 362.344 53.042C362.344 51.1924 360.845 49.693 358.995 49.693C357.145 49.693 355.646 51.1924 355.646 53.042C355.646 54.8916 357.145 56.391 358.995 56.391Z" fill="#E3E5E8"/>
<path d="M446.946 80.212L415.276 121.468L350.767 205.509L312.253 255.681L276.287 254.349L202.8 251.615L167.034 250.281L301.72 74.809L446.946 80.212Z" stroke="#E3E5E8" stroke-width="1.937" stroke-linecap="round" stroke-linejoin="round"/>
<path d="M182.641 250.549L309.105 86.974L437.663 91.837" stroke="#E3E5E8" stroke-width="1.937" stroke-linecap="round" stroke-linejoin="round"/>
<path d="M301.861 75.044L308.964 86.741" stroke="#E3E5E8" stroke-width="1.937" stroke-linecap="round" stroke-linejoin="round"/>
<path d="M306.444 75.288L313.547 86.985" stroke="#E3E5E8" stroke-width="1.937" stroke-linecap="round" stroke-linejoin="round"/>
<path d="M311.027 75.515L318.13 87.212" stroke="#E3E5E8" stroke-width="1.937" stroke-linecap="round" stroke-linejoin="round"/>
<path d="M315.61 75.743L322.713 87.44" stroke="#E3E5E8" stroke-width="1.937" stroke-linecap="round" stroke-linejoin="round"/>
<path d="M320.193 75.971L327.296 87.668" stroke="#E3E5E8" stroke-width="1.937" stroke-linecap="round" stroke-linejoin="round"/>
<path d="M324.776 76.198L331.879 87.895" stroke="#E3E5E8" stroke-width="1.937" stroke-linecap="round" stroke-linejoin="round"/>
<path d="M329.358 76.426L336.461 88.123" stroke="#E3E5E8" stroke-width="1.937" stroke-linecap="round" stroke-linejoin="round"/>
<path d="M333.941 76.653L341.044 88.35" stroke="#E3E5E8" stroke-width="1.937" stroke-linecap="round" stroke-linejoin="round"/>
<path d="M338.524 76.881L345.627 88.578" stroke="#E3E5E8" stroke-width="1.937" stroke-linecap="round" stroke-linejoin="round"/>
<path d="M343.107 77.108L350.21 88.805" stroke="#E3E5E8" stroke-width="1.937" stroke-linecap="round" stroke-linejoin="round"/>
<path d="M347.69 77.336L354.793 89.033" stroke="#E3E5E8" stroke-width="1.937" stroke-linecap="round" stroke-linejoin="round"/>
<path d="M352.272 77.564L359.375 89.261" stroke="#E3E5E8" stroke-width="1.937" stroke-linecap="round" stroke-linejoin="round"/>
<path d="M356.822 77.146L363.925 88.843" stroke="#E3E5E8" stroke-width="1.937" stroke-linecap="round" stroke-linejoin="round"/>
<path d="M361.405 77.374L368.508 89.071" stroke="#E3E5E8" stroke-width="1.937" stroke-linecap="round" stroke-linejoin="round"/>
<path d="M365.987 77.601L373.09 89.298" stroke="#E3E5E8" stroke-width="1.937" stroke-linecap="round" stroke-linejoin="round"/>
<path d="M370.57 77.829L377.673 89.526" stroke="#E3E5E8" stroke-width="1.937" stroke-linecap="round" stroke-linejoin="round"/>
<path d="M375.153 78.057L382.256 89.754" stroke="#E3E5E8" stroke-width="1.937" stroke-linecap="round" stroke-linejoin="round"/>
<path d="M379.736 78.284L386.839 89.981" stroke="#E3E5E8" stroke-width="1.937" stroke-linecap="round" stroke-linejoin="round"/>
<path d="M384.285 77.867L391.388 89.564" stroke="#E3E5E8" stroke-width="1.937" stroke-linecap="round" stroke-linejoin="round"/>
<path d="M388.868 78.094L395.971 89.791" stroke="#E3E5E8" stroke-width="1.937" stroke-linecap="round" stroke-linejoin="round"/>
<path d="M393.451 78.322L400.554 90.019" stroke="#E3E5E8" stroke-width="1.937" stroke-linecap="round" stroke-linejoin="round"/>
<path d="M398.034 78.55L405.137 90.247" stroke="#E3E5E8" stroke-width="1.937" stroke-linecap="round" stroke-linejoin="round"/>
<path d="M402.617 78.777L409.72 90.474" stroke="#E3E5E8" stroke-width="1.937" stroke-linecap="round" stroke-linejoin="round"/>
<path d="M407.199 79.005L414.302 90.702" stroke="#E3E5E8" stroke-width="1.937" stroke-linecap="round" stroke-linejoin="round"/>
<path d="M411.782 79.232L418.885 90.929" stroke="#E3E5E8" stroke-width="1.937" stroke-linecap="round" stroke-linejoin="round"/>
<path d="M416.716 79.447L423.435 90.512" stroke="#E3E5E8" stroke-width="1.937" stroke-linecap="round" stroke-linejoin="round"/>
<path d="M421.116 79.375L428.017 90.74" stroke="#E3E5E8" stroke-width="1.937" stroke-linecap="round" stroke-linejoin="round"/>
<path d="M425.521 79.734L432.624 91.431" stroke="#E3E5E8" stroke-width="1.937" stroke-linecap="round" stroke-linejoin="round"/>
<path d="M430.104 79.962L437.207 91.659" stroke="#E3E5E8" stroke-width="1.937" stroke-linecap="round" stroke-linejoin="round"/>
<path d="M434.687 80.189L439.773 88.565" stroke="#E3E5E8" stroke-width="1.937" stroke-linecap="round" stroke-linejoin="round"/>
<path d="M439.27 80.417L442.418 85.601" stroke="#E3E5E8" stroke-width="1.937" stroke-linecap="round" stroke-linejoin="round"/>
<path d="M443.833 80.259L444.533 81.412" stroke="#E3E5E8" stroke-width="1.937" stroke-linecap="round" stroke-linejoin="round"/>
<path d="M303.048 78.341L171.123 250.144" stroke="#E3E5E8" stroke-width="1.937" stroke-linecap="round" stroke-linejoin="round"/>
<path d="M304.586 81.558L175.048 250.253" stroke="#E3E5E8" stroke-width="1.937" stroke-linecap="round" stroke-linejoin="round"/>
<path d="M306.348 84.818L179.152 250.464" stroke="#E3E5E8" stroke-width="1.937" stroke-linecap="round" stroke-linejoin="round"/>
<path d="M176.185 212.313H141.726V256.498H106.711V212.313H0V187.303L95.874 61.972H134.5L44.186 181.749H107.823V142.562H141.723V181.749H176.182L176.185 212.313Z" fill="#E3E5E8"/>
<path d="M401.142 139.883L312.252 255.683L282.732 254.583C265.557 250.594 249.776 242.049 237.047 229.849C224.318 217.648 215.112 202.242 210.399 185.252C205.685 168.262 205.638 150.316 210.261 133.301C214.885 116.286 224.009 100.832 236.674 88.5648C249.338 76.2972 265.075 67.6695 282.228 63.5896C299.381 59.5096 317.317 60.128 334.148 65.3799C350.98 70.6317 366.085 80.3228 377.874 93.4335C389.663 106.544 397.701 122.59 401.142 139.883V139.883Z" fill="#2FF45E"/>
<path d="M575.522 212.313H541.061V256.498H506.046V212.313H399.337V187.303L495.21 61.972H533.837L443.523 181.749H507.161V142.562H541.061V181.749H575.52L575.522 212.313Z" fill="#E3E5E8"/>
<path d="M113.981 9.38999H101.412C101.862 11.729 103.812 13.229 106.602 13.229C107.409 13.2611 108.213 13.1227 108.963 12.8229C109.712 12.523 110.39 12.0685 110.952 11.489L112.961 13.8C112.146 14.6854 111.145 15.3788 110.029 15.83C108.914 16.2812 107.712 16.479 106.511 16.409C101.142 16.409 97.662 12.959 97.662 8.189C97.6306 7.09732 97.8239 6.01084 98.2301 4.99704C98.6363 3.98325 99.2466 3.06379 100.023 2.29581C100.8 1.52784 101.726 0.927759 102.744 0.532811C103.762 0.137864 104.851 -0.0434968 105.942 4.99189e-06C110.622 4.99189e-06 114.042 3.27 114.042 8.279C114.041 8.579 114.011 9.02899 113.981 9.38999ZM101.381 6.89899H110.471C110.355 5.79434 109.822 4.77566 108.98 4.05088C108.138 3.32609 107.052 2.94986 105.942 2.999C104.831 2.95776 103.745 3.336 102.9 4.05854C102.055 4.78108 101.513 5.79504 101.381 6.89899V6.89899Z" fill="#2FF45E"/>
<path d="M126.912 0V3.569C126.625 3.5128 126.334 3.48268 126.041 3.479C123.192 3.479 121.392 5.15899 121.392 8.42999V16.199H117.642V0.179993H121.211V2.51999C122.291 0.839989 124.242 0 126.912 0Z" fill="#2FF45E"/>
<path d="M139.361 0V3.569C139.074 3.51285 138.783 3.48273 138.491 3.479C135.641 3.479 133.841 5.15899 133.841 8.42999V16.199H130.091V0.179993H133.661V2.51999C134.742 0.839989 136.692 0 139.361 0Z" fill="#2FF45E"/>
<path d="M141.072 8.189C141.072 3.389 144.672 0 149.591 0C154.572 0 158.141 3.39 158.141 8.189C158.141 12.988 154.572 16.409 149.591 16.409C144.672 16.409 141.072 12.989 141.072 8.189ZM154.362 8.189C154.313 7.25994 153.994 6.36549 153.442 5.61618C152.891 4.86687 152.132 4.29553 151.259 3.97275C150.387 3.64997 149.439 3.5899 148.533 3.79996C147.626 4.01002 146.801 4.48101 146.16 5.15472C145.518 5.82844 145.088 6.67537 144.923 7.59085C144.757 8.50633 144.863 9.45024 145.228 10.306C145.593 11.1617 146.201 11.8917 146.976 12.4059C147.752 12.92 148.661 13.1958 149.591 13.199C150.243 13.2153 150.89 13.095 151.492 12.8457C152.095 12.5965 152.638 12.2239 153.087 11.7519C153.537 11.2799 153.882 10.719 154.101 10.1053C154.321 9.4917 154.409 8.8389 154.361 8.189H154.362Z" fill="#2FF45E"/>
</g>
<defs>
<clipPath id="clip0">
<rect width="575.522" height="256.649" fill="white"/>
</clipPath>
</defs>
</svg>
