<svg id="eJwsDCc7qX61" xmlns="http://www.w3.org/2000/svg" xmlns:xlink="http://www.w3.org/1999/xlink" viewBox="0 -100 412 500" shape-rendering="geometricPrecision" text-rendering="geometricPrecision"><style><![CDATA[#eJwsDCc7qX62_to {animation: eJwsDCc7qX62_to__to 3000ms linear infinite alternate forwards}@keyframes eJwsDCc7qX62_to__to { 0% {transform: translate(237px,172px)} 100% {transform: translate(237.000008px,211.2785px)}} #eJwsDCc7qX65_to {animation: eJwsDCc7qX65_to__to 3000ms linear infinite alternate forwards}@keyframes eJwsDCc7qX65_to__to { 0% {transform: translate(293px,86px)} 100% {transform: translate(292px,114.091728px)}} #eJwsDCc7qX68_to {animation: eJwsDCc7qX68_to__to 3000ms linear infinite alternate forwards}@keyframes eJwsDCc7qX68_to__to { 0% {transform: translate(116.857475px,55.050164px)} 100% {transform: translate(117.144226px,16.743263px)}} #eJwsDCc7qX612_to {animation: eJwsDCc7qX612_to__to 3000ms linear infinite alternate forwards}@keyframes eJwsDCc7qX612_to__to { 0% {transform: translate(352px,289.188507px)} 100% {transform: translate(352px,257.818007px)}} #eJwsDCc7qX615_to {animation: eJwsDCc7qX615_to__to 3000ms linear infinite alternate forwards}@keyframes eJwsDCc7qX615_to__to { 0% {transform: translate(63.5px,265.949997px)} 100% {transform: translate(63.831px,226.449997px)}}]]></style><g id="eJwsDCc7qX62_to" transform="translate(237,172)"><g id="eJwsDCc7qX62" transform="translate(-237,-172)"><path id="eJwsDCc7qX63" d="M276.429,126L197.571,126C193.942,126,191,128.942,191,132.571L191,211.429C191,215.058,193.942,218,197.571,218L276.429,218C280.058,218,283,215.058,283,211.429L283,132.571C283,128.942,280.058,126,276.429,126Z" fill="rgb(53,49,53)" stroke="none" stroke-width="1"/><path id="eJwsDCc7qX64" d="M253.004,197.88L245.941,201.955C248.48,206.959,253.685,210.787,261.739,210.787C269.979,210.787,276.113,206.526,276.113,198.744C276.113,191.52,271.963,188.309,264.589,185.159L262.421,184.232C258.704,182.627,257.093,181.577,257.093,178.983C257.093,176.883,258.704,175.277,261.245,175.277C263.723,175.277,265.332,176.328,266.82,178.983L273.575,174.659C270.723,169.657,266.759,167.743,261.245,167.743C253.5,167.743,248.543,172.683,248.543,179.168C248.543,186.207,252.694,189.543,258.953,192.198L261.121,193.125C265.086,194.854,267.44,195.903,267.44,198.868C267.44,201.339,265.148,203.129,261.553,203.129C257.279,203.129,254.864,200.906,253.004,197.88ZM222.333,198.621L215.27,202.882C217.313,207.204,221.342,210.786,228.281,210.786C235.963,210.786,241.229,206.71,241.229,197.756L241.229,168.237L232.555,168.237L232.555,197.634C232.555,201.955,230.758,203.067,227.909,203.067C224.935,203.067,223.695,201.03,222.333,198.621Z" clip-rule="evenodd" fill="rgb(24,25,28)" fill-rule="evenodd" stroke="none" stroke-width="1"/></g></g><g id="eJwsDCc7qX65_to" transform="translate(293,86)"><g id="eJwsDCc7qX65" transform="translate(-293,-86)"><path id="eJwsDCc7qX66" d="M317,58L269,58C266.791,58,265,59.7909,265,62L265,110C265,112.209,266.791,114,269,114L317,114C319.209,114,321,112.209,321,110L321,62C321,59.7909,319.209,58,317,58Z" fill="rgb(53,49,53)" stroke="none" stroke-width="1"/><path id="eJwsDCc7qX67" d="M278.283,86.4224L278.283,88.6784L285.395,88.6784L285.395,109.157L290.443,109.157L290.443,88.6776L297.555,88.6776L297.555,86.464C297.555,85.2184,297.555,84.208,297.501,84.1808C297.501,84.1392,293.165,84.1248,287.898,84.1248L278.324,84.1672L278.324,86.436L278.283,86.4224ZM310.249,84.1112C311.644,84.444,312.711,85.08,313.668,86.0904C314.174,86.644,314.926,87.6128,314.982,87.8616C314.982,87.9448,312.615,89.5632,311.179,90.4632C311.124,90.504,310.906,90.2688,310.686,89.9096C309.975,88.8856,309.25,88.4424,308.115,88.3592C306.474,88.2488,305.379,89.1208,305.379,90.5736C305.379,91.016,305.462,91.2656,305.626,91.6256C305.995,92.3856,306.678,92.8432,308.799,93.784C312.711,95.4856,314.407,96.6064,315.433,98.212C316.595,100.01,316.855,102.834,316.075,104.95C315.2,107.262,313.066,108.825,310.016,109.337C309.058,109.503,306.87,109.475,305.844,109.295C303.656,108.88,301.563,107.774,300.278,106.348C299.771,105.794,298.8,104.314,298.854,104.217L299.374,103.885L301.426,102.681L302.972,101.768L303.327,102.252C303.779,102.972,304.791,103.94,305.379,104.273C307.158,105.199,309.538,105.075,310.714,103.996C311.22,103.526,311.438,103.027,311.438,102.335C311.438,101.698,311.342,101.408,311.028,100.924C310.59,100.315,309.716,99.8168,307.254,98.7096C304.422,97.492,303.218,96.7176,302.097,95.5272C301.454,94.8072,300.865,93.6872,300.592,92.7592C300.386,91.9576,300.318,89.992,300.51,89.204C301.098,86.436,303.163,84.4992,306.118,83.9456C307.075,83.752,309.332,83.8352,310.276,84.084L310.249,84.112L310.249,84.1112Z" fill="rgb(24,25,28)" stroke="none" stroke-width="1"/></g></g><g id="eJwsDCc7qX68_to" transform="translate(116.857475,55.050164)"><g id="eJwsDCc7qX68" transform="translate(-116.857475,-55.050163)"><path id="eJwsDCc7qX69" d="M127.331,30.2958L122.266,39.0455L104.944,9.11425L51.7704,100.986L87.7727,100.986C87.7727,105.818,91.6994,109.736,96.5431,109.736L51.7704,109.736C48.6373,109.736,45.7425,108.067,44.1763,105.36C42.61,102.653,42.6102,99.318,44.1767,96.6111L97.3507,4.73941C98.9174,2.03211,101.813,0.364319,104.946,0.364319C108.08,0.364319,110.975,2.03211,112.542,4.73941L127.331,30.2958Z" fill="rgb(0,197,142)" stroke="none" stroke-width="1"/><path id="eJwsDCc7qX610" d="M165.716,96.6111L132.396,39.0455L127.331,30.2958L122.266,39.0455L88.9494,96.6111C87.3829,99.318,87.3827,102.653,88.949,105.36C90.5153,108.067,93.4101,109.736,96.5431,109.736L158.111,109.736C161.245,109.736,164.141,108.069,165.708,105.362C167.275,102.654,167.275,99.3186,165.708,96.6111L165.716,96.6111ZM96.5431,100.986L127.331,47.7952L158.111,100.986L96.5431,100.986L96.5431,100.986Z" fill="rgb(47,73,94)" stroke="none" stroke-width="1"/><path id="eJwsDCc7qX611" d="M189.538,105.361C187.972,108.067,185.077,109.736,181.945,109.736L158.111,109.736C162.955,109.736,166.881,105.818,166.881,100.986L181.926,100.986L139.237,27.2225L132.396,39.0455L127.331,30.2958L131.643,22.8476C133.209,20.1403,136.105,18.4725,139.238,18.4725C142.372,18.4725,145.267,20.1403,146.834,22.8476L189.538,96.6111C191.105,99.3183,191.105,102.654,189.538,105.361Z" fill="rgb(16,135,117)" stroke="none" stroke-width="1"/></g></g><g id="eJwsDCc7qX612_to" transform="translate(352,289.188507)"><g id="eJwsDCc7qX612" transform="translate(-352,-289.188507)"><path id="eJwsDCc7qX613" d="M316.12,335.729L401.213,335.729L358.667,250.867L316.12,335.729ZM358.667,236L412,342.377L305.333,342.377L358.667,236Z" fill="rgb(255,255,255)" stroke="none" stroke-width="1"/><path id="eJwsDCc7qX614" d="M292,322.431L332,242.649L372,322.431L292,322.431Z" clip-rule="evenodd" fill="rgb(90,69,255)" fill-rule="evenodd" stroke="none" stroke-width="1"/></g></g><g id="eJwsDCc7qX615_to" transform="translate(63.5,265.949997)"><g id="eJwsDCc7qX615" transform="translate(-63.5,-265.949997)"><path id="eJwsDCc7qX616" d="M101.6,211L127,211L63.5,320.9L0,211L25.0825,211L48.5775,211L63.5,236.484L78.105,211L101.6,211Z" fill="rgb(65,184,131)" stroke="none" stroke-width="1"/><path id="eJwsDCc7qX617" d="M0,211L63.5,320.9L127,211L101.6,211L63.5,276.94L25.0825,211L0,211Z" fill="rgb(65,184,131)" stroke="none" stroke-width="1"/><path id="eJwsDCc7qX618" d="M25.0825,211L63.5,277.259L101.6,211L78.105,211L63.5,236.484L48.5775,211L25.0825,211Z" fill="rgb(53,73,94)" stroke="none" stroke-width="1"/></g></g></svg>